<svg width="15" height="21" viewBox="0 0 15 21" fill="none" xmlns="http://www.w3.org/2000/svg">
<g clip-path="url(#clip0_618_53)">
<path d="M4.65356 13.0585V13.0267L4.62705 12.9978C4.58747 13.0151 4.55227 13.0408 4.52396 13.0729C4.46506 13.1566 4.58287 13.3386 4.58287 13.3386C4.5426 13.3273 4.50622 13.3055 4.47767 13.2755C4.44912 13.2455 4.42948 13.2084 4.42088 13.1682C4.43283 13.0845 4.45663 13.0029 4.49157 12.9256C4.51513 12.8592 4.53869 12.7639 4.56225 12.6629C4.58581 12.5618 4.60938 12.4665 4.64177 12.3481C4.70952 12.12 4.80671 11.8601 4.86267 11.6291C4.89982 11.4913 4.92834 11.3515 4.94809 11.2104C4.97459 10.962 5.00405 10.4971 5.02172 10.191C5.02561 10.1459 5.02561 10.1005 5.02172 10.0553C5.0225 9.82907 5.10024 9.60957 5.24261 9.43156C5.37515 9.31894 5.49885 9.33915 5.65201 9.26696C5.49597 9.2129 5.32759 9.2029 5.16604 9.23808C5.16604 9.23808 4.70363 9.59615 4.48273 11.1873C4.48273 11.1873 4.21176 12.6686 4.20293 12.8217C4.21837 12.9739 4.24197 13.1252 4.27361 13.275C4.36748 13.3171 4.46647 13.3472 4.56814 13.3646C4.5976 13.3646 4.63883 13.3646 4.70952 13.3328C4.78342 13.3047 4.86535 13.3047 4.93925 13.3328C4.64472 13.2086 4.71246 13.1133 4.67417 13.044" fill="white"/>
<path d="M6.62691 7.73938H6.90671C6.98918 7.73938 7.03925 7.71917 7.0363 7.6643C7.03336 7.60944 6.91555 7.59789 6.91555 7.59789L6.71232 7.62965C6.71232 7.62965 6.68876 7.71339 6.62985 7.73072" fill="white"/>
<path d="M9.26588 9.18322C9.26588 9.16012 9.22465 8.82515 9.22465 8.56815C9.22465 8.43532 9.22465 8.32558 9.22465 8.27938C9.22465 8.23318 9.14218 8.23607 9.12745 8.27938C9.11273 8.3227 9.07149 8.33425 9.07149 8.33425C9.07149 8.33425 9.04793 8.33425 9.04204 8.39778C9.04204 8.34869 9.02731 8.35157 9.00964 8.33714C8.99197 8.3227 8.92128 8.46997 8.92128 8.46997C8.92128 8.46997 8.92128 8.50751 8.92128 8.6028C8.92128 8.62301 8.92128 8.64612 8.92128 8.6721C8.91736 8.80892 8.94036 8.9452 8.98902 9.07349C8.99223 9.08201 8.99778 9.08948 9.00506 9.09509C9.01234 9.1007 9.02106 9.10422 9.03026 9.10526C9.01947 9.17159 9.02763 9.23955 9.05382 9.30162C9.13334 9.4229 9.17458 9.39402 9.17458 9.39402C9.31595 9.27852 9.27766 9.2352 9.27472 9.189" fill="white"/>
<path d="M6.1586 8.75008C6.17416 8.73513 6.19258 8.72335 6.2128 8.71542C6.23302 8.70749 6.25464 8.70357 6.27641 8.70387C6.29833 8.70424 6.31995 8.70889 6.34001 8.71755C6.36007 8.72621 6.37817 8.73869 6.39326 8.75429C6.40834 8.76988 6.4201 8.78827 6.42785 8.80837C6.4356 8.82847 6.43919 8.84988 6.43841 8.87136C6.43761 8.89577 6.43109 8.91967 6.41934 8.94121C6.40759 8.96274 6.39093 8.98133 6.37066 8.99553H6.33827C6.27952 8.98954 6.2203 8.98954 6.16155 8.99553C6.13061 8.96473 6.11327 8.92325 6.11327 8.88002C6.11327 8.8368 6.13061 8.79531 6.16155 8.76451M5.95538 8.88291C5.95643 8.95105 5.98023 9.01698 6.02312 9.07061C5.96396 9.1253 5.90791 9.18314 5.85524 9.24387C5.82981 9.27122 5.7972 9.29119 5.76099 9.30162C5.76099 9.30162 5.69325 9.70012 5.8464 9.64814C5.8464 9.64814 5.86996 9.55285 5.95243 9.57017C5.99288 9.58264 6.03615 9.58327 6.07696 9.57199C6.11776 9.5607 6.15432 9.53799 6.18217 9.50665C6.22045 9.47777 6.32943 9.50665 6.32943 9.50665C6.41484 9.48932 6.51793 9.52975 6.5356 9.45178C6.53635 9.44506 6.53635 9.43828 6.5356 9.43157C6.46786 9.37381 6.27052 9.40269 6.27052 9.40269C6.29432 9.39421 6.31902 9.3884 6.34416 9.38536C6.34416 9.38536 6.38539 9.38536 6.38834 9.36226C6.42435 9.36804 6.45982 9.37673 6.49437 9.38825C6.568 9.41135 6.57094 9.38825 6.57683 9.36226C6.5748 9.34461 6.56645 9.32824 6.55327 9.31606C6.50738 9.29726 6.46012 9.28181 6.4119 9.26986C6.35604 9.26512 6.29987 9.26512 6.24402 9.26986C6.2685 9.25977 6.29426 9.25297 6.32059 9.24964C6.3471 9.24964 6.37361 9.24964 6.37066 9.22077C6.41273 9.22677 6.45351 9.23945 6.49142 9.25831C6.53855 9.28141 6.56211 9.28141 6.57683 9.27274C6.59156 9.26408 6.59156 9.25542 6.59451 9.24964V9.2352C6.59223 9.22323 6.58702 9.21198 6.57933 9.20242C6.57163 9.19287 6.56168 9.18529 6.55033 9.18034C6.48867 9.15836 6.42573 9.14004 6.36183 9.12547C6.30509 9.12836 6.24883 9.13707 6.19395 9.15146C6.22827 9.13259 6.26657 9.12172 6.30587 9.1197C6.36477 9.1197 6.35594 9.07638 6.35594 9.07638C6.35594 9.07638 6.35594 9.09371 6.48553 9.12836C6.51793 9.12836 6.6004 9.18034 6.57683 9.10526C6.56687 9.09035 6.55499 9.07677 6.54149 9.06483C6.58023 9.01163 6.60177 8.94826 6.60334 8.88291C6.60615 8.83939 6.59987 8.79577 6.58488 8.75471C6.5699 8.71365 6.54653 8.67602 6.5162 8.64412C6.48587 8.61223 6.44923 8.58673 6.4085 8.5692C6.36778 8.55167 6.32384 8.54247 6.27936 8.54216C6.2578 8.54027 6.23612 8.54027 6.21456 8.54216C6.12915 8.65767 6.02606 8.7674 5.95243 8.85114" fill="white"/>
<path d="M6.17333 13.1162C6.01428 13.0007 5.58427 13.1971 5.58427 13.1971C5.58427 13.1971 5.50769 13.3732 5.6638 13.3703C5.77994 13.3754 5.89632 13.3696 6.01134 13.353C6.13041 13.3495 6.24959 13.3553 6.36772 13.3703C6.55033 13.3213 6.16744 13.1162 6.16744 13.1162" fill="white"/>
<path d="M3.67867 12.2037C3.64332 12.403 3.56675 12.7495 3.55496 12.8737C3.54318 12.9978 3.54024 13.2202 3.54024 13.2202C3.58736 13.2491 3.64921 13.2693 3.66983 13.2808L3.9084 11.3807C3.9084 11.3807 3.71401 12.0045 3.67867 12.2037Z" fill="white"/>
<path d="M6.71526 7.61233H6.90965C7.04808 7.61233 7.09226 7.56324 7.03924 7.50838C6.98623 7.45351 6.81245 7.48239 6.81245 7.48239L6.67992 7.52859C6.67992 7.52859 6.74471 7.52859 6.71231 7.61811" fill="white"/>
<path d="M13.8605 12.6109H13.2892V11.1411C13.2892 11.1411 13.2892 11.1266 13.2892 11.1208C13.3061 11.0597 13.3431 11.0057 13.3945 10.9672C13.4459 10.9287 13.5087 10.9078 13.5734 10.9078C13.638 10.9078 13.7009 10.9287 13.7523 10.9672C13.8036 11.0057 13.8406 11.0597 13.8576 11.1208C13.8576 11.1208 13.8576 11.1208 13.8576 11.1411L13.8605 12.6109ZM12.8709 10.679C12.7859 10.679 12.7027 10.6543 12.632 10.608C12.5613 10.5617 12.5062 10.4958 12.4736 10.4188C12.4411 10.3417 12.4326 10.257 12.4492 10.1752C12.4658 10.0934 12.5067 10.0183 12.5669 9.95932C12.627 9.90035 12.7036 9.8602 12.787 9.84393C12.8704 9.82767 12.9569 9.83602 13.0355 9.86793C13.1141 9.89984 13.1812 9.95387 13.2285 10.0232C13.2757 10.0925 13.3009 10.174 13.3009 10.2574C13.3009 10.3692 13.2556 10.4765 13.175 10.5555C13.0943 10.6346 12.985 10.679 12.8709 10.679ZM12.4497 12.6109H11.8813V11.1411C11.8813 11.1411 11.8813 11.1266 11.8813 11.1208C11.8983 11.0597 11.9353 11.0057 11.9866 10.9672C12.038 10.9287 12.1009 10.9078 12.1655 10.9078C12.2302 10.9078 12.293 10.9287 12.3444 10.9672C12.3958 11.0057 12.4328 11.0597 12.4497 11.1208C12.4497 11.1208 12.4497 11.1208 12.4497 11.1411V12.6109ZM12.5882 6.23202C12.5935 6.16473 12.6227 6.10138 12.6706 6.05299C12.7107 6.01858 12.7596 5.99547 12.812 5.98613C12.8644 5.97678 12.9184 5.98155 12.9683 5.99992C13.0181 6.01829 13.062 6.04958 13.0952 6.09045C13.1283 6.13132 13.1496 6.18025 13.1566 6.23202V6.27534V7.81158H12.5882V6.23202ZM2.63604 12.6109H2.06759V11.1411C2.06759 11.1411 2.06759 11.1266 2.06759 11.1208C2.08455 11.0597 2.12157 11.0057 2.17293 10.9672C2.2243 10.9287 2.28716 10.9078 2.35182 10.9078C2.41647 10.9078 2.47933 10.9287 2.5307 10.9672C2.58206 11.0057 2.61908 11.0597 2.63604 11.1208C2.63604 11.1208 2.63604 11.1208 2.63604 11.1411V12.6109ZM1.64642 10.679C1.56137 10.679 1.47823 10.6543 1.40752 10.608C1.3368 10.5617 1.28168 10.4958 1.24914 10.4188C1.21659 10.3417 1.20808 10.257 1.22467 10.1752C1.24126 10.0934 1.28221 10.0183 1.34235 9.95932C1.40249 9.90035 1.47911 9.8602 1.56253 9.84393C1.64594 9.82767 1.7324 9.83602 1.81098 9.86793C1.88955 9.89984 1.95671 9.95387 2.00396 10.0232C2.05121 10.0925 2.07643 10.174 2.07643 10.2574C2.07643 10.3128 2.06531 10.3676 2.0437 10.4188C2.02209 10.4699 1.99041 10.5164 1.95048 10.5555C1.91055 10.5947 1.86315 10.6258 1.81098 10.6469C1.7588 10.6681 1.70289 10.679 1.64642 10.679ZM1.22819 12.6109H0.659745V11.1411C0.659185 11.1343 0.659185 11.1276 0.659745 11.1208C0.676701 11.0597 0.713718 11.0057 0.765083 10.9672C0.816449 10.9287 0.879309 10.9078 0.943966 10.9078C1.00862 10.9078 1.07148 10.9287 1.12285 10.9672C1.17421 11.0057 1.21123 11.0597 1.22819 11.1208C1.22819 11.1208 1.22819 11.1208 1.22819 11.1411V12.6109ZM1.36072 6.27822V6.23202C1.36805 6.16055 1.40229 6.09431 1.45675 6.04626C1.51121 5.9982 1.58198 5.97177 1.65525 5.97213C1.72852 5.97177 1.7993 5.9982 1.85376 6.04626C1.90822 6.09431 1.94246 6.16055 1.94978 6.23202V7.81158H1.36072V6.27822ZM14.0785 9.37669L13.996 5.36572H14.2906L13.0417 2.96607C13.1181 2.92838 13.1793 2.86653 13.2154 2.79053C13.2515 2.71453 13.2603 2.62882 13.2406 2.54726C13.2208 2.4657 13.1736 2.39306 13.1065 2.34108C13.0394 2.2891 12.9564 2.26082 12.8709 2.26082C12.7854 2.26082 12.7024 2.2891 12.6353 2.34108C12.5683 2.39306 12.521 2.4657 12.5013 2.54726C12.4815 2.62882 12.4904 2.71453 12.5265 2.79053C12.5625 2.86653 12.6237 2.92838 12.7001 2.96607L11.4631 5.36572H11.7576L11.7223 6.54678L11.6486 6.25801C11.5247 5.78887 11.2455 5.37331 10.8548 5.07648C10.4641 4.77964 9.984 4.61833 9.48973 4.61781H9.43377C9.34854 4.22784 9.15654 3.86801 8.87839 3.57699C8.60025 3.28597 8.24647 3.07476 7.85509 2.96607V2.18928H7.9729L7.38384 1.05154C7.44273 1.02204 7.48978 0.973972 7.51741 0.91507C7.54505 0.856168 7.55166 0.789862 7.53619 0.726827C7.52071 0.663793 7.48405 0.607697 7.43211 0.567573C7.38017 0.527449 7.31596 0.50563 7.24983 0.50563C7.18371 0.50563 7.1195 0.527449 7.06756 0.567573C7.01561 0.607697 6.97896 0.663793 6.96348 0.726827C6.94801 0.789862 6.95462 0.856168 6.98225 0.91507C7.00989 0.973972 7.05694 1.02204 7.11582 1.05154L6.54149 2.18928H6.66225V2.97473C6.27087 3.08343 5.91709 3.29463 5.63895 3.58565C5.3608 3.87667 5.1688 4.2365 5.08357 4.62648H5.02761C4.53333 4.62699 4.0532 4.78831 3.6625 5.08514C3.2718 5.38197 2.99261 5.79754 2.86871 6.26667L2.79214 6.55544L2.77152 5.36572H3.06605L1.81724 2.96607C1.89362 2.92838 1.95479 2.86653 1.99087 2.79053C2.02695 2.71453 2.03584 2.62882 2.01608 2.54726C1.99632 2.4657 1.94908 2.39306 1.882 2.34108C1.81492 2.2891 1.73192 2.26082 1.64642 2.26082C1.56092 2.26082 1.47791 2.2891 1.41083 2.34108C1.34375 2.39306 1.29651 2.4657 1.27676 2.54726C1.257 2.62882 1.26588 2.71453 1.30196 2.79053C1.33805 2.86653 1.39922 2.92838 1.47559 2.96607L0.235623 5.36572H0.530152L0.453575 9.37669H0.0736323L0 13.379H3.29284L3.22215 9.37669V7.55457C3.23432 7.21176 3.2877 6.87155 3.38119 6.541C3.41065 6.44571 3.4401 6.3533 3.46955 6.25224C3.58476 5.93844 3.79594 5.66714 4.07427 5.4754C4.3526 5.28366 4.6845 5.18082 5.02467 5.18091C5.22616 5.18241 5.42571 5.21958 5.61372 5.29064C5.60395 5.21691 5.59904 5.14264 5.599 5.06829C5.5896 4.85037 5.62526 4.63284 5.70384 4.42879C5.78242 4.22474 5.90228 4.03838 6.05623 3.88093C6.21018 3.72347 6.39502 3.59818 6.59964 3.51259C6.80426 3.427 7.02442 3.38288 7.24689 3.38288C7.46935 3.38288 7.68952 3.427 7.89414 3.51259C8.09875 3.59818 8.2836 3.72347 8.43755 3.88093C8.59149 4.03838 8.71136 4.22474 8.78994 4.42879C8.86852 4.63284 8.90418 4.85037 8.89478 5.06829C8.89518 5.14265 8.89025 5.21695 8.88005 5.29064C9.06806 5.21958 9.26762 5.18241 9.46911 5.18091C9.80927 5.18082 10.1412 5.28366 10.4195 5.4754C10.6978 5.66714 10.909 5.93844 11.0242 6.25224C11.0566 6.34175 11.0861 6.43416 11.1126 6.541C11.2063 6.87149 11.2597 7.21173 11.2716 7.55457V9.37669L11.2009 13.379H14.5203L14.4437 9.37669H14.0785Z" fill="white"/>
<path d="M7.84625 8.3689C7.88051 8.37024 7.91467 8.36434 7.94639 8.35157C8.02337 8.31378 8.08624 8.25315 8.12606 8.17831C8.1312 8.14702 8.12632 8.11494 8.11207 8.08649C8.09783 8.05804 8.07493 8.03463 8.04653 8.01949C8.03408 8.01381 8.02051 8.01086 8.00677 8.01086C7.99303 8.01086 7.97946 8.01381 7.96701 8.01949C7.93382 8.03215 7.90137 8.04662 7.86981 8.0628C7.89043 8.04259 7.86981 7.99928 7.86981 7.99928C7.91988 8.03393 8.129 7.94152 8.08777 7.71051C8.08053 7.68206 8.0756 7.65309 8.07304 7.62388C8.07676 7.59029 8.07676 7.5564 8.07304 7.52281C8.07304 7.47949 8.08777 7.40153 8.07304 7.36399C8.05831 7.32645 8.00824 7.33511 7.98468 7.34377C7.89927 7.38131 7.89927 7.51415 7.88749 7.55457H7.86098C7.84331 7.55457 7.84036 7.53436 7.81974 7.51415C7.79552 7.48856 7.7729 7.46156 7.752 7.43329C7.73433 7.41019 7.61652 7.28313 7.56056 7.23404C7.5046 7.18495 7.47515 7.23404 7.4722 7.26292C7.46925 7.2918 7.56939 7.44196 7.56939 7.44196C7.65186 7.55169 7.67543 7.56035 7.67543 7.56035L7.65186 7.57768C7.65186 7.57768 7.65186 7.57768 7.54583 7.44196C7.54583 7.44196 7.42508 7.28025 7.38384 7.23693C7.3768 7.23056 7.36835 7.22589 7.35915 7.22327C7.34995 7.22065 7.34026 7.22016 7.33084 7.22184C7.32142 7.22352 7.31252 7.22732 7.30485 7.23295C7.29718 7.23857 7.29095 7.24587 7.28665 7.25426C7.26014 7.30912 7.43391 7.51415 7.43391 7.51415C7.46996 7.56979 7.51584 7.61868 7.56939 7.65853L7.54289 7.68163C7.55761 7.68163 7.4074 7.51415 7.4074 7.51415C7.34555 7.45351 7.29843 7.37554 7.2513 7.34089C7.20418 7.30623 7.17178 7.39575 7.20123 7.43907C7.23069 7.48238 7.23363 7.49393 7.27781 7.55169C7.32199 7.60944 7.46042 7.7365 7.46042 7.7365C7.39368 7.66033 7.31862 7.59158 7.23658 7.53147C7.16 7.47949 7.13938 7.54591 7.15705 7.58345C7.19355 7.63813 7.2339 7.69023 7.27781 7.73939C7.29843 7.76249 7.44864 7.86933 7.46042 7.88377L7.52816 7.97906C7.55947 8.02361 7.59497 8.06518 7.63419 8.10323C7.63419 8.10323 7.69899 8.14655 7.74022 8.12633C7.72964 8.1488 7.72384 8.17314 7.72318 8.19788C7.72252 8.22262 7.72701 8.24722 7.73638 8.2702C7.74576 8.29318 7.75981 8.31404 7.77769 8.3315C7.79557 8.34897 7.81689 8.36268 7.84036 8.37178" fill="white"/>
<path d="M9.87261 10.5635C9.8026 10.5986 9.72413 10.6142 9.64572 10.6086C9.5673 10.603 9.49196 10.5764 9.42787 10.5318C9.29423 10.4615 9.16624 10.3814 9.04499 10.2921C9.17976 10.3554 9.32872 10.3843 9.47794 10.3758C9.6079 10.3361 9.74252 10.3128 9.8785 10.3065C9.8785 10.3065 9.61637 10.3845 9.6311 10.5231C9.6311 10.5751 9.74891 10.5895 9.86967 10.5606M8.02003 9.90802C8.05095 9.91572 8.08335 9.91572 8.11427 9.90802L8.26743 9.85893C8.3175 9.84449 8.31455 9.85893 8.32928 9.81561C8.33288 9.85009 8.34927 9.88208 8.37533 9.9055C8.40139 9.92892 8.43531 9.94215 8.47065 9.94267C8.56785 9.94267 8.62086 9.88203 8.6945 9.88492H8.78875C8.78875 9.9138 8.80347 9.93401 8.80347 9.93401C8.88005 9.99465 8.93012 9.9138 8.89772 9.85315C8.92724 9.88127 8.96571 9.8986 9.0067 9.90224C9.12901 9.89439 9.24979 9.87109 9.36602 9.83294C9.46616 9.79829 9.66055 9.7261 9.68412 9.66546C9.70768 9.60481 9.60754 9.45177 9.56925 9.3507C9.55452 9.31027 9.54863 9.3045 9.52507 9.24674C9.54274 9.29006 9.58692 9.37958 9.63699 9.48065L9.66055 9.52974C9.69884 9.59904 9.73713 9.67123 9.77542 9.73187C9.8063 9.78912 9.84279 9.84328 9.88439 9.89358C9.96539 9.96063 10.0376 10.0373 10.0994 10.1217C10.007 9.9083 9.93498 9.68692 9.88439 9.46043C9.82272 9.29048 9.74789 9.12541 9.66055 8.96664C9.60751 8.84331 9.56897 8.71446 9.54569 8.58258C9.53785 8.50673 9.53785 8.4303 9.54569 8.35445C9.54569 8.35445 9.71357 8.84825 9.73124 8.93199C9.74891 9.01573 9.92268 9.5384 9.95803 9.61348C9.99337 9.68856 10.2231 10.3065 10.282 10.3729C10.3255 10.4132 10.3659 10.4567 10.4028 10.5029C10.474 10.5858 10.5389 10.6736 10.5972 10.7657C10.5568 10.714 10.5028 10.674 10.4411 10.6502C10.4199 10.6385 10.402 10.6218 10.3891 10.6017C10.3763 10.5815 10.3688 10.5584 10.3674 10.5346C10.3515 10.4769 10.3223 10.4236 10.282 10.3787C10.2462 10.349 10.2154 10.3139 10.1907 10.2748C10.1642 10.2343 10.1377 10.1852 10.1112 10.139C10.0296 10.0669 9.94083 10.003 9.84611 9.94845C9.73124 9.89358 9.67528 9.86471 9.59281 9.89647C9.42162 9.96974 9.23761 10.0099 9.05088 10.0149C8.82114 9.98021 8.96252 10.0842 8.96252 10.0842C9.09477 10.1361 9.2354 10.1644 9.3778 10.1679C9.536 10.1691 9.69375 10.1846 9.84905 10.2141C9.93609 10.2288 10.0169 10.2679 10.0817 10.3267C9.93146 10.2634 9.76538 10.2453 9.60459 10.2748C9.3715 10.2901 9.14171 10.2143 8.96546 10.064C8.75929 9.97155 8.78286 10.0957 8.81231 10.1275C8.83579 10.1537 8.8625 10.177 8.89183 10.1968C8.74751 10.1477 8.81525 10.2401 8.81525 10.2401C8.8729 10.269 8.92721 10.3038 8.97724 10.3441C9.36602 10.6964 9.64583 10.7541 9.81371 10.7281C9.84505 10.7176 9.8778 10.7118 9.9109 10.7108C9.87157 10.7248 9.83552 10.7464 9.80487 10.7743C9.67042 10.8461 9.52171 10.8884 9.36897 10.8985C9.20932 10.9243 9.04544 10.9 8.90067 10.8292C8.85649 10.7945 8.84471 10.6761 8.93307 10.6502C9.02142 10.6242 9.08033 10.578 9.08622 10.5087C9.09211 10.4394 8.97724 10.3469 8.97724 10.3469C8.79758 10.2488 8.72984 10.3123 8.72984 10.3123L8.77696 9.98599H8.54723C8.51397 9.98995 8.48035 9.98995 8.44709 9.98599H8.42942H8.29688V9.9369L8.24681 9.91091C8.22533 9.90783 8.2035 9.90783 8.18202 9.91091L8.08188 9.94267L8.02003 9.90802ZM9.43082 8.81071C9.44555 8.87712 9.46616 9.00996 9.49267 9.12257C9.44966 9.16526 9.40444 9.20574 9.35719 9.24386C9.48678 9.13701 9.44555 8.88001 9.43082 8.81071ZM9.3837 8.02526C9.47957 8.05476 9.58235 8.05476 9.67822 8.02526C9.6635 8.08879 9.52507 8.0859 9.52507 8.0859C9.56799 8.11583 9.6041 8.15418 9.6311 8.19852C9.69001 8.29093 9.55158 8.23895 9.55158 8.23895C9.55158 8.11478 9.3837 8.02526 9.3837 8.02526ZM10.5795 11.5482C10.5772 11.3921 10.5347 11.2391 10.4558 11.1035C10.5795 11.2409 10.6494 11.4169 10.6531 11.6002C10.6531 11.9236 10.6325 12.7553 10.6089 12.9834C10.6089 12.9834 10.4646 13.1624 10.3645 12.8563C10.3645 12.8563 10.4646 12.917 10.5029 12.6773C10.5672 12.3035 10.5929 11.9242 10.5795 11.5453M9.87556 12.787C9.89323 12.7206 9.89912 11.8976 9.89912 11.8976C9.92563 12.2066 10.0346 12.917 10.0346 12.917C9.90796 12.917 9.86083 12.8506 9.8785 12.7841M9.72535 11.3172C9.72535 11.2594 9.72535 11.2219 9.69884 11.2161C9.63311 11.2755 9.58523 11.3514 9.56041 11.4356C9.51329 11.5771 9.47205 11.6868 9.33068 12.042C9.098 12.6195 8.92423 12.7322 8.92423 12.7322C8.93835 12.6325 8.91869 12.531 8.86827 12.4434C9.07738 12.2239 9.70768 11.0891 9.80193 10.9822C9.89618 10.8754 9.91679 10.9187 9.91679 10.9187C9.80721 11.0262 9.74037 11.1686 9.72829 11.3201M8.92128 11.5511C8.88005 11.375 8.66799 10.9909 8.80053 10.9736C8.85649 10.9736 9.17163 11.2421 9.3189 11.2421C9.36188 11.248 9.40565 11.2403 9.44381 11.22C9.48197 11.1997 9.51251 11.168 9.53096 11.1295C9.63994 10.936 9.6959 10.91 9.6959 10.91C9.64229 10.9779 9.59683 11.0515 9.56041 11.1295C9.51034 11.2306 9.44849 11.3403 9.38959 11.4616C9.23337 11.7537 9.05311 12.0328 8.8506 12.2961C8.92554 12.0531 8.9486 11.7975 8.91834 11.5453M7.58707 12.7004L7.54583 12.9343C7.49062 13.113 7.49578 13.3045 7.56056 13.4801C7.68346 13.3369 7.75579 13.1586 7.76673 12.9718C7.80207 12.7668 7.93756 12.0276 8.06126 11.3547C8.02592 11.0342 8.0053 10.7339 8.08777 10.6617C8.17023 10.5895 8.23209 10.5433 8.20558 10.5635C8.2527 10.3094 8.28216 10.139 8.28216 10.139L8.65915 10.2776C8.52574 10.3349 8.40089 10.4097 8.28805 10.5C8.13935 10.7936 8.10379 11.1299 8.18791 11.4471C8.19695 11.5965 8.17798 11.7463 8.13195 11.889C8.14996 12.1159 8.1874 12.341 8.24387 12.5618C8.24387 12.5618 8.33517 12.7841 8.49716 12.8506C8.49716 12.8506 8.32339 12.8246 8.29394 12.7697C8.26806 12.7946 8.24709 12.824 8.23209 12.8563C8.23209 12.8563 8.06715 12.9661 8.12606 13.0671C8.08726 13.1115 8.04153 13.1495 7.99057 13.1797C7.92592 13.2242 7.85562 13.2601 7.78146 13.2866C7.73794 13.3027 7.6994 13.3296 7.66954 13.3646C7.66954 13.3877 7.66954 13.3905 7.68721 13.3819C7.70407 13.3622 7.7252 13.3464 7.74906 13.3357C7.69604 13.3646 7.69899 13.3934 7.71666 13.4079C7.71666 13.4079 7.74611 13.4079 7.76673 13.3703C7.77492 13.3576 7.78569 13.3467 7.79835 13.3383C7.81102 13.3299 7.82532 13.3241 7.84036 13.3212C7.84036 13.3212 7.74611 13.3617 7.78146 13.4137C7.8168 13.4656 7.86098 13.3674 7.87276 13.3559C7.90774 13.3273 7.95101 13.3101 7.99646 13.3068C7.87865 13.3415 7.86687 13.3617 7.89927 13.4137C7.92408 13.427 7.95194 13.4341 7.98026 13.4341C8.00859 13.4341 8.03645 13.427 8.06126 13.4137C8.16729 13.4137 8.32339 13.3299 8.42353 13.3241C8.46182 13.3241 8.46182 13.3241 8.52367 13.3443C8.58552 13.3646 8.6621 13.3443 8.68272 13.3212C8.74751 13.2 8.52956 13.0614 8.49127 13.0325C8.45298 13.0036 8.35873 12.9487 8.35873 12.9487C8.43241 12.9892 8.50923 13.024 8.58847 13.0527C8.63474 13.0718 8.6832 13.0854 8.73279 13.0931C8.88005 13.1104 8.95368 13.0411 9.09211 13.0296C9.37237 12.8076 9.55137 12.4856 9.58986 12.1344C9.64983 11.9152 9.69509 11.6924 9.72535 11.4674C9.7165 11.6222 9.7165 11.7774 9.72535 11.9323C9.72535 12.1026 9.75186 12.6686 9.72535 12.761C9.69884 12.8534 9.66055 12.8737 9.66055 12.8737C9.68338 12.9318 9.7202 12.9838 9.7679 13.025C9.81559 13.0662 9.87273 13.0955 9.93446 13.1104C9.98643 13.1157 10.0389 13.1088 10.0876 13.0902C10.153 13.1357 10.2282 13.1658 10.3073 13.1783C10.3865 13.1909 10.4675 13.1854 10.5441 13.1624C10.5922 13.1456 10.6386 13.1243 10.6826 13.0989C10.715 13.0816 10.7179 11.6262 10.7032 11.4327C10.7058 11.3524 10.6843 11.273 10.6413 11.2046C10.6044 11.1327 10.5557 11.0674 10.497 11.0111C10.478 10.9962 10.4636 10.9765 10.4553 10.9541C10.447 10.9317 10.4451 10.9074 10.4499 10.8841C10.4499 10.7368 10.4823 10.7512 10.5324 10.8119C10.6042 10.9297 10.6419 11.0644 10.6413 11.2017C10.6806 11.2556 10.717 11.3115 10.7503 11.3692C10.7754 11.4564 10.7844 11.5474 10.7768 11.6377C10.7768 11.6377 10.7768 12.9343 10.7768 13.0614C10.7917 13.027 10.8115 12.9949 10.8357 12.9661C10.8357 12.9661 10.8357 11.3663 10.7945 11.0284C10.7945 10.9418 10.7415 10.9014 10.7297 10.8263C10.73 10.6939 10.6955 10.5636 10.6296 10.448C10.6894 10.5064 10.7348 10.5776 10.7621 10.6559C10.8154 10.8068 10.8529 10.9625 10.874 11.1208C10.8946 11.2392 10.9418 11.424 10.9418 11.424C10.9765 11.1679 10.9523 10.9075 10.8711 10.6617C10.8312 10.5514 10.781 10.4451 10.7209 10.3441C10.662 10.2459 10.6001 10.1708 10.5824 10.1477C10.3498 9.77808 10.3203 9.66257 10.0847 9.21498C9.94567 8.96428 9.88425 8.67928 9.90796 8.39488C9.92712 8.47049 9.96224 8.54132 10.011 8.60279C10.0365 8.64072 10.054 8.68322 10.0626 8.72783C10.0712 8.77243 10.0707 8.81827 10.0611 8.86268C10.0663 9.00782 10.11 9.14913 10.1878 9.27273C10.2897 9.48878 10.411 9.69557 10.55 9.89069C10.6296 9.98887 10.6737 9.97444 10.6737 9.97444C10.6296 9.6308 10.3321 8.5306 10.3321 8.5306C10.4176 8.59531 10.4754 8.68904 10.4941 8.79338C10.5117 8.8598 10.5441 9.08215 10.603 9.3045C10.6826 9.61925 10.9211 10.4596 10.9359 10.474C10.8505 9.91957 10.874 9.91957 10.821 9.69722C10.7886 9.5615 10.8004 9.37091 10.7739 9.1861C10.7326 8.89734 10.7209 8.80204 10.7179 8.74718C10.6855 8.19274 10.5088 8.16964 10.5088 8.16964C10.5883 7.95884 10.4852 7.90687 10.4852 7.90687C10.4315 7.87124 10.3673 7.85399 10.3026 7.85777C10.229 7.90398 10.2467 7.79713 10.173 7.83467C10.0994 7.87221 10.011 7.89531 10.011 7.89531C10.229 7.73072 10.1377 7.68163 10.1377 7.68163C10.085 7.75754 10.0137 7.81926 9.9303 7.86113C9.84694 7.90301 9.75419 7.9237 9.66055 7.9213C9.59003 7.9279 9.51902 7.9279 9.44849 7.9213C9.41315 7.9213 9.39548 7.94729 9.38075 7.98194C9.38166 7.97366 9.38083 7.96529 9.37829 7.95734C9.37576 7.94939 9.37158 7.94204 9.36602 7.93574C9.38369 7.91264 9.39548 7.88954 9.36602 7.85777C9.35172 7.8478 9.33968 7.83502 9.33068 7.82024C9.32168 7.79971 9.31705 7.7776 9.31705 7.75526C9.31705 7.73292 9.32168 7.71082 9.33068 7.69029C9.35719 7.64986 9.39253 7.6181 9.39253 7.56035C9.32778 7.5562 9.26377 7.57575 9.21287 7.61521C9.18047 7.64986 9.15691 7.67874 9.11273 7.71917C9.07203 7.76294 9.04451 7.81692 9.03321 7.8751C9.01553 7.94441 9.10389 7.97906 9.10389 7.97906C9.10389 7.97906 8.92423 7.95596 9.03026 7.80868C9.01259 7.82601 8.94485 7.852 8.90067 7.88088C8.85649 7.90975 8.83293 7.99927 8.80936 8.04259C8.78045 8.10029 8.74799 8.15622 8.71217 8.21007C8.66124 8.28178 8.62705 8.36361 8.61203 8.44975C8.64368 8.41746 8.68178 8.3919 8.72395 8.37467C8.76064 8.36525 8.79918 8.36525 8.83587 8.37467C8.8771 8.37467 8.8771 8.37467 8.95074 8.32269C9.02437 8.27071 9.04204 8.17831 9.1304 8.12055C9.21876 8.0628 9.25999 8.05702 9.31006 8.03104C9.31131 8.03965 9.31501 8.04774 9.32074 8.05438C9.32648 8.06102 9.334 8.06594 9.34246 8.06858C9.34843 8.07139 9.35498 8.07285 9.36161 8.07285C9.36823 8.07285 9.37478 8.07139 9.38075 8.06858C9.38075 8.12922 9.36308 8.23317 9.36308 8.33424C9.3599 8.38232 9.3599 8.43055 9.36308 8.47862C9.37773 8.59146 9.40338 8.70266 9.43966 8.81071C9.38303 8.72116 9.34035 8.62383 9.31301 8.52194C9.30406 8.76375 9.32183 9.0058 9.36602 9.24386L9.27766 9.31316H9.25705L9.18636 9.36514H9.16869C9.12156 9.39402 9.01848 9.45177 8.99786 9.46043C8.9658 9.46689 8.93273 9.46689 8.90067 9.46043C8.85649 9.46043 8.83587 9.48642 8.80642 9.5153C8.77697 9.54417 8.68861 9.53551 8.65915 9.5153L8.51189 9.41712L8.45298 9.3738C8.506 9.35936 8.55018 9.33049 8.55901 9.28717C8.56088 9.26015 8.55249 9.23341 8.53545 9.21209L8.3499 9.11102C8.48538 9.09659 8.51189 9.12546 8.57079 9.07348C8.6297 9.02151 8.74162 8.92621 8.82703 8.85691C8.91245 8.7876 8.89183 8.65477 8.9095 8.56814C8.9095 8.25339 8.61497 8.41798 8.61497 8.41798L8.58847 8.49884C8.58847 8.51328 8.53545 8.52483 8.52661 8.51905C8.55723 8.53251 8.58451 8.5523 8.60659 8.57707C8.62867 8.60183 8.64502 8.63098 8.65454 8.66253C8.66405 8.69407 8.66649 8.72725 8.66169 8.75981C8.6569 8.79236 8.64498 8.82352 8.62675 8.85113C8.62675 8.85113 8.72689 8.6721 8.53545 8.61723C8.46 8.59771 8.38981 8.56227 8.32979 8.51339C8.26976 8.46451 8.22134 8.40337 8.18791 8.33424C8.11427 8.23895 8.05242 8.35445 7.99057 8.37178C7.94081 8.38766 7.88718 8.38766 7.83742 8.37178C7.81255 8.36752 7.78911 8.35741 7.76911 8.34233C7.7491 8.32724 7.73313 8.30762 7.72255 8.28515C7.70923 8.25617 7.70317 8.22449 7.70488 8.19274C7.68694 8.21437 7.67715 8.24139 7.67715 8.26927C7.67715 8.29714 7.68694 8.32417 7.70488 8.34579C7.7542 8.43747 7.79273 8.53435 7.81975 8.63456C7.88778 8.82485 7.99734 8.99829 8.14078 9.14279L8.17023 9.17166C8.15522 9.1786 8.14191 9.18865 8.13123 9.20111C8.12056 9.21357 8.11276 9.22816 8.10838 9.24386C8.10701 9.27154 8.11413 9.299 8.12883 9.32268C8.14353 9.34636 8.16513 9.36517 8.19085 9.37669C8.14441 9.39621 8.09917 9.41839 8.05537 9.44311C8.00824 9.47487 7.97879 9.50086 7.9729 9.52685C7.96701 9.55284 7.99941 9.57016 8.05242 9.52685L8.1938 9.47198C8.21199 9.46624 8.23156 9.46624 8.24976 9.47198C8.24976 9.47198 8.0377 9.56439 8.00235 9.5846C7.98401 9.59162 7.96827 9.60394 7.95722 9.61993C7.94618 9.63591 7.94035 9.65481 7.9405 9.67412C7.94172 9.6792 7.9441 9.68394 7.94745 9.68799C7.9508 9.69204 7.95504 9.69529 7.95985 9.69751C7.96466 9.69974 7.96993 9.70086 7.97525 9.70081C7.98057 9.70076 7.9858 9.69953 7.99057 9.69722L8.15551 9.63658C8.20558 9.61925 8.19674 9.63658 8.21736 9.63658L7.96996 9.74342C7.96141 9.74984 7.95454 9.75817 7.94993 9.76771C7.94532 9.77725 7.9431 9.78774 7.94345 9.79829C7.9434 9.80412 7.94486 9.80987 7.94768 9.815C7.9505 9.82013 7.9546 9.82448 7.95959 9.82765C7.96458 9.83081 7.97031 9.83269 7.97624 9.83311C7.98217 9.83353 7.98811 9.83248 7.99352 9.83005L8.14667 9.76364C8.15534 9.75932 8.16493 9.75708 8.17465 9.75708C8.18438 9.75708 8.19396 9.75932 8.20263 9.76364C8.20263 9.76364 8.0053 9.85027 7.99941 9.85604C7.99803 9.85924 7.99732 9.86268 7.99732 9.86615C7.99732 9.86962 7.99803 9.87306 7.99941 9.87626L7.65186 9.75497L7.59001 10.0957H8.0701C8.0701 10.0957 7.86687 11.1699 7.71666 12.0074C7.75422 12.1247 7.76312 12.2491 7.74266 12.3705C7.72219 12.4919 7.67294 12.6069 7.59885 12.7062" fill="white"/>
<path d="M5.24261 8.59703C5.24261 8.59703 5.26323 8.85403 5.35748 8.90023C5.45173 8.94644 5.52831 9.07638 5.67263 9.00708C5.67263 9.00708 6.19983 8.52195 6.19983 8.31981C6.15333 8.28918 6.11819 8.24461 6.09969 8.19276C6.14387 8.28227 6.23223 8.33136 6.28819 8.28227C6.41779 8.16965 6.41779 8.14944 6.41779 8.14944C6.4525 8.15104 6.48689 8.14223 6.51636 8.12417C6.54583 8.10611 6.56898 8.07967 6.58272 8.04837C6.58181 8.03664 6.57846 8.02521 6.57289 8.01478C6.56732 8.00435 6.55964 7.99515 6.55032 7.98773C6.63574 8.04548 6.67108 7.92998 6.67108 7.92998C6.69381 7.91845 6.71233 7.90029 6.7241 7.878V7.86356C6.80867 7.87008 6.89341 7.85307 6.96856 7.81447C6.96856 7.81447 6.96856 7.79426 6.96856 7.78559C6.96856 7.77693 6.92143 7.75672 6.92143 7.75672C6.92143 7.75672 6.60334 7.77693 6.58272 7.77982C6.51204 7.79714 6.54738 7.85779 6.54443 7.89821C6.54578 7.92204 6.53847 7.94557 6.52382 7.96463C6.53374 7.94904 6.539 7.93103 6.539 7.91265C6.539 7.89427 6.53374 7.87626 6.52382 7.86067C6.50614 7.82025 6.47375 7.83468 6.48553 7.80869C6.49731 7.78271 6.52087 7.75383 6.5945 7.74228C6.66814 7.73073 6.72115 7.63255 6.72704 7.55747C6.72704 7.53725 6.72704 7.52859 6.70937 7.52282C6.6917 7.51704 6.60039 7.55169 6.57389 7.56902C6.52999 7.58628 6.48466 7.5998 6.4384 7.60945C6.4703 7.602 6.50101 7.59034 6.52971 7.57479C6.58022 7.54237 6.63463 7.51618 6.6917 7.49683C6.71821 7.49683 6.81245 7.47661 6.84191 7.47661C7.00095 7.42463 6.92438 7.36111 6.88903 7.35822C6.85369 7.35533 6.70348 7.38998 6.67992 7.38998C6.56152 7.43309 6.44552 7.48224 6.33237 7.53725C6.27391 7.61657 6.22821 7.70422 6.19689 7.79714C6.19689 7.83468 6.14093 7.95308 6.14093 7.95308C6.06141 7.93575 6.02017 8.01083 5.99072 8.04837C5.96127 8.08591 5.79927 8.28516 5.77277 8.31404C5.69504 8.37092 5.61443 8.42393 5.53125 8.47286C5.51589 8.49665 5.50585 8.52336 5.50179 8.55124C5.49773 8.57911 5.49974 8.60751 5.50769 8.63457C5.49225 8.61521 5.48134 8.59276 5.47574 8.5688C5.47014 8.54485 5.46999 8.51998 5.47529 8.49596C5.48495 8.46392 5.48495 8.42982 5.47529 8.39778L5.43406 8.34003L5.40166 8.30249C5.40166 8.30249 5.22789 8.19276 5.25734 8.59125" fill="white"/>
<path d="M6.25285 9.50087C6.25285 9.55862 6.25285 9.62504 6.27052 9.69723C6.08791 9.72033 5.9112 9.75209 5.76982 9.77808C5.681 9.84694 5.58158 9.90152 5.47529 9.93979C5.47529 9.98599 5.49885 10.0206 5.51653 10.0206C5.5342 10.0206 5.90236 10.0206 6.30292 9.98311L6.35888 10.5982C6.39076 10.7374 6.40363 10.8801 6.39717 11.0227C6.10279 10.6291 5.67621 10.3499 5.19254 10.2343C5.10713 10.2343 5.05412 10.2343 5.03939 10.3643C5.03354 10.4701 5.03354 10.5761 5.03939 10.6819C5.03939 10.7686 5.08946 10.9158 5.14837 10.936C5.19008 10.945 5.2333 10.945 5.27501 10.936C5.2388 10.9519 5.20427 10.9713 5.17193 10.9938C5.12074 11.0214 5.07568 11.0587 5.03939 11.1035C5.00994 11.1526 5.14837 11.118 5.14837 11.118L5.222 11.1439C5.222 11.1439 5.222 11.2421 5.44879 11.1266C5.54221 11.0673 5.64076 11.016 5.74331 10.9736C5.69637 10.9967 5.65279 11.0258 5.61372 11.0602C5.54009 11.118 5.49002 11.1671 5.41933 11.2219C5.28137 11.3016 5.13265 11.3619 4.97754 11.401C5.00699 11.4327 5.07473 11.401 5.07473 11.401C5.07473 11.7821 5.66379 11.4645 5.66379 11.4645C5.18371 11.8485 4.99226 11.4645 4.87445 11.6233C5.43111 11.9929 6.03784 11.3345 6.1586 11.2133C6.19887 11.1712 6.24857 11.1388 6.30377 11.1188C6.35897 11.0987 6.41817 11.0915 6.47669 11.0977C6.47669 11.0977 6.47669 11.2421 6.45902 11.4241C6.50909 11.9756 6.55032 12.4319 6.55621 12.4954C6.57389 12.6744 6.57389 12.7408 6.50909 12.7841C6.47225 12.8065 6.42893 12.8164 6.38582 12.8122C6.3427 12.808 6.30219 12.79 6.27052 12.761C6.21512 12.7229 6.16467 12.6783 6.12031 12.6282C6.06703 12.5668 6.02062 12.5 5.98188 12.429C6.00746 12.4474 6.03649 12.4607 6.06732 12.4682C6.09814 12.4756 6.13016 12.477 6.16155 12.4723C6.17529 12.4689 6.18827 12.463 6.19983 12.455L6.22634 12.4347L6.19689 12.4174H6.18216C6.07969 12.3446 5.99506 12.2503 5.93443 12.1415C5.8738 12.0326 5.83869 11.9118 5.83167 11.7879C5.83738 11.854 5.85872 11.9179 5.89399 11.9746C5.92927 12.0312 5.97751 12.079 6.0349 12.1142C6.30292 11.7821 6.40306 11.5367 6.26169 11.3807C6.19983 11.3085 5.96716 11.4356 5.82578 11.5309C5.68441 11.6262 5.61961 11.6782 5.45468 11.8197C5.28974 11.9612 5.0011 12.2355 5.0011 12.2355C5.0011 12.2355 5.33392 11.8052 5.1572 11.8254C5.04528 11.8774 4.98343 12.0449 4.88918 12.2095C4.79493 12.3741 4.81555 12.3943 4.67123 12.4636C4.67123 12.7697 5.26029 12.4261 5.4694 12.2182C5.5604 12.1469 5.63051 12.0532 5.67263 11.9467V11.9756C5.6498 12.039 5.63496 12.105 5.62845 12.172C5.59252 12.2067 5.55304 12.2376 5.51064 12.2644L5.48413 12.2846C5.2493 12.4654 4.99556 12.6212 4.72719 12.7495C4.58876 12.8072 4.72719 13.0383 4.72719 13.0383C4.70068 13.1942 4.92747 13.3501 4.92747 13.3501C4.96228 13.36 4.99881 13.3629 5.03477 13.3584C5.07074 13.3539 5.10539 13.3423 5.13658 13.3241C5.29893 13.3418 5.46208 13.2985 5.5931 13.2029C5.73534 13.1214 5.87119 13.0297 5.99955 12.9285C5.95597 12.8851 5.90246 12.8524 5.84345 12.8332C5.78733 12.8199 5.72875 12.8199 5.67263 12.8332C5.48801 12.881 5.31417 12.9623 5.16015 13.0729C5.16015 13.0729 5.39872 12.8621 5.61372 12.6369C5.67557 12.5705 5.61372 12.4261 5.61372 12.2846C5.62232 12.4277 5.66904 12.5661 5.7492 12.686L5.80222 12.7582V12.6715C5.7923 12.5987 5.7923 12.5249 5.80222 12.4521C5.84979 12.6063 5.92132 12.7524 6.01428 12.8852C6.06212 12.9493 6.11974 13.0058 6.18511 13.0527C6.3147 13.1509 6.51204 13.2837 6.65046 13.3732L6.80362 13.4714H6.81835C6.81835 13.4714 7.15705 13.1307 7.32494 12.9285C7.4775 12.7361 7.5604 12.4994 7.56056 12.2557C7.58843 12.3243 7.60723 12.3961 7.61652 12.4694V12.556L7.65186 12.4752C7.70023 12.346 7.71441 12.2069 7.6931 12.0709C7.6612 11.8704 7.55663 11.6879 7.39857 11.5569L7.3485 11.5107V11.5771C7.37459 11.7025 7.37201 11.8321 7.34095 11.9564C7.30988 12.0807 7.2511 12.1967 7.16884 12.2961L7.14527 12.3192H7.17473C7.21495 12.3305 7.25775 12.3294 7.29729 12.316C7.33682 12.3025 7.37117 12.2774 7.39562 12.2442C7.35906 12.3876 7.28955 12.5209 7.1924 12.634C7.16821 12.6691 7.13292 12.6955 7.09194 12.7091C7.05097 12.7227 7.00658 12.7226 6.96561 12.7091C6.89492 12.6946 6.8802 12.6282 6.85663 12.4492C6.84191 12.3308 6.63574 10.8841 6.50025 9.94557C6.9067 9.8907 7.29548 9.80407 7.29548 9.80407C7.29548 9.80407 7.32494 9.76076 7.31904 9.71167C7.31315 9.66258 7.29254 9.62215 7.27487 9.62504C7.25719 9.62792 6.87136 9.62504 6.46197 9.66258L6.43546 9.47776H6.47669C6.43546 9.47776 6.37655 9.47776 6.32648 9.47776C6.30019 9.47702 6.27404 9.48195 6.2499 9.4922" fill="white"/>
<path d="M3.87305 12.943C3.89172 12.8139 3.89665 12.6832 3.88778 12.5531C3.88675 12.6977 3.84605 12.8393 3.76997 12.9632C3.72926 13.0667 3.69964 13.1742 3.68161 13.2837C3.68161 13.2837 3.71106 13.3501 3.82004 13.3213C3.80966 13.1919 3.83192 13.0619 3.88484 12.943" fill="white"/>
<path d="M5.64317 9.26697C5.64317 9.26697 5.40166 9.36515 5.31919 9.41713C5.26647 9.44917 5.2208 9.49122 5.18489 9.54081C5.14898 9.5904 5.12354 9.64653 5.11008 9.7059C5.11008 9.80119 5.08946 9.89648 5.32508 9.81563C5.7551 9.66836 5.74626 9.63948 5.74626 9.63948C5.68146 9.59328 5.74626 9.2843 5.74626 9.2843L5.63139 9.26408" fill="white"/>
<path d="M8.77402 2.73505H9.88734H9.89028L9.63993 3.79772V3.80349V3.8006V3.80349L9.64288 3.79772L10.3321 2.94585H10.335L11.0301 3.8006L10.7768 2.73505H11.8931L10.8858 2.26436L11.5838 1.40961L10.5795 1.88608L10.335 0.817642L10.0906 1.88319L9.08622 1.40673H9.08327L9.78131 2.26148V2.26436L8.77402 2.73505Z" fill="white"/>
<path d="M9.90206 17.1676C9.13734 17.73 8.20721 18.0339 7.2513 18.0339C6.29539 18.0339 5.36527 17.73 4.60054 17.1676C3.83941 17.7367 2.90691 18.0414 1.94978 18.0339H1.73477C1.99783 18.3194 2.2845 18.5831 2.59185 18.8223C3.33461 18.7297 4.03845 18.4435 4.62999 17.9935C5.39472 18.5558 6.32484 18.8598 7.28076 18.8598C8.23666 18.8598 9.16679 18.5558 9.93152 17.9935C10.5233 18.443 11.227 18.7292 11.9697 18.8223C12.264 18.5786 12.5378 18.312 12.7884 18.0253H12.5764C11.6193 18.0323 10.687 17.7276 9.92563 17.159" fill="white"/>
<path d="M5.19256 6.75759C5.15721 6.75759 5.13954 6.7316 5.09242 6.74315C5.04975 6.75258 5.00548 6.75258 4.96282 6.74315C4.9903 6.73633 5.01696 6.72665 5.04235 6.71427C5.07448 6.69573 5.11109 6.68596 5.14838 6.68596C5.18566 6.68596 5.22227 6.69573 5.25441 6.71427C5.25441 6.71427 5.22495 6.7547 5.18961 6.74892M5.1631 6.82689C5.15546 6.83251 5.14615 6.83555 5.1366 6.83555C5.12704 6.83555 5.11773 6.83251 5.11009 6.82689C5.08063 6.82689 5.11009 6.78357 5.03646 6.77491C5.05035 6.76468 5.06648 6.75776 5.08358 6.7547C5.11568 6.74186 5.15162 6.74186 5.18372 6.7547C5.18372 6.7547 5.18372 6.80668 5.16016 6.81534M5.09831 6.43994C5.06716 6.45873 5.03174 6.46965 4.99522 6.47171C4.94943 6.50691 4.91304 6.5525 4.88919 6.60454C4.88097 6.6319 4.86577 6.65675 4.84501 6.67673C4.83067 6.69199 4.81372 6.7047 4.79494 6.71427C4.79838 6.72949 4.79838 6.74526 4.79494 6.76047C4.77759 6.79483 4.75582 6.82685 4.73015 6.85577C4.71699 6.86641 4.70702 6.88037 4.70132 6.89613C4.69561 6.9119 4.69438 6.92888 4.69775 6.94528C4.71542 6.97127 4.69775 6.97994 4.69775 7.01459C4.69509 7.05015 4.69509 7.08586 4.69775 7.12143C4.69969 7.1592 4.68937 7.1966 4.66829 7.22828C4.66204 7.23827 4.65874 7.24976 4.65874 7.26148C4.65874 7.27321 4.66204 7.2847 4.66829 7.29469C4.6564 7.30457 4.64226 7.31151 4.62706 7.31491C4.67418 7.42464 4.80378 7.4102 4.85679 7.40442C4.89504 7.40198 4.93341 7.40198 4.97166 7.40442C5.02397 7.41499 5.07731 7.41983 5.13071 7.41886C5.23968 7.39865 5.20728 7.29758 5.20139 7.26293C5.1955 7.22828 5.13071 7.18207 5.13071 7.18207C5.16354 7.19526 5.19837 7.20306 5.23379 7.20517V7.17919H5.18961C5.15529 7.17696 5.12085 7.17696 5.08653 7.17919C5.14128 7.17223 5.19671 7.17223 5.25146 7.17919L5.24263 7.09833C5.37811 7.09833 5.3516 7.02325 5.33393 6.97994C5.31472 6.93792 5.29897 6.89446 5.28681 6.84999C5.28681 6.81245 5.26619 6.78069 5.26619 6.77491C5.27008 6.75682 5.27008 6.73814 5.26619 6.72005C5.2597 6.64317 5.2597 6.5659 5.26619 6.48903C5.24118 6.48652 5.21704 6.47864 5.1955 6.46593C5.16815 6.477 5.13744 6.477 5.11009 6.46593" fill="white"/>
<path d="M9.90207 15.513C9.1383 16.0776 8.20781 16.3829 7.2513 16.3829C6.2948 16.3829 5.3643 16.0776 4.60054 15.513C3.8392 16.0816 2.90684 16.3863 1.94978 16.3793C1.47423 16.38 1.00172 16.3049 0.550766 16.157C0.694412 16.4887 0.863771 16.8092 1.05736 17.1157C1.348 17.1749 1.64407 17.2049 1.94094 17.2052C2.89804 17.2124 3.83047 16.9077 4.59171 16.3389C5.35547 16.9034 6.28596 17.2088 7.24247 17.2088C8.19897 17.2088 9.12947 16.9034 9.89323 16.3389C10.6546 16.9075 11.5869 17.2122 12.544 17.2052C12.8409 17.2049 13.1369 17.1749 13.4276 17.1157C13.6202 16.8092 13.7885 16.4887 13.9312 16.157C13.4801 16.3044 13.0077 16.3795 12.5322 16.3793C11.5752 16.3861 10.6429 16.0814 9.88145 15.513" fill="white"/>
<path d="M4.25006 7.18496C4.2488 7.1638 4.2488 7.14259 4.25006 7.12143C4.25953 7.07985 4.27542 7.03992 4.29718 7.00304C4.22355 7.2456 4.33842 7.32934 4.32075 7.31779C4.3108 7.29005 4.30775 7.26038 4.31185 7.23125C4.31595 7.20212 4.32707 7.17437 4.34431 7.15031C4.34431 7.15031 4.32664 7.22828 4.34431 7.24849C4.34811 7.20365 4.36441 7.16069 4.39143 7.12432C4.42079 7.09026 4.44103 7.04957 4.45034 7.00593C4.45688 6.96754 4.46982 6.93047 4.48863 6.89619C4.47619 6.92856 4.46923 6.9627 4.46801 6.99726C4.47367 7.02296 4.47367 7.04954 4.46801 7.07523C4.44445 7.14453 4.39732 7.27448 4.50041 7.34667C4.50041 7.34667 4.44445 7.23694 4.50041 7.16763C4.50041 7.16763 4.50041 7.27737 4.55048 7.30047C4.53517 7.25056 4.53517 7.19733 4.55048 7.14742C4.56716 7.10913 4.5752 7.06776 4.57404 7.02614C4.58517 7.06681 4.58517 7.10964 4.57404 7.15031C4.56484 7.17055 4.56161 7.19292 4.56474 7.21487C4.56786 7.23683 4.57721 7.25748 4.59171 7.27448C4.58539 7.26018 4.58342 7.2444 4.58603 7.22903C4.58865 7.21366 4.59573 7.19936 4.60644 7.18785C4.62567 7.16579 4.63984 7.13993 4.64797 7.11203C4.6561 7.08412 4.65801 7.05483 4.65356 7.02614C4.63589 6.95395 4.58582 6.92218 4.67418 6.80668C4.66687 6.85066 4.66687 6.89552 4.67418 6.93951C4.66955 6.92053 4.66955 6.90074 4.67418 6.88176C4.69185 6.81245 4.71247 6.83266 4.69185 6.75759C4.67124 6.68251 4.73014 6.66518 4.73014 6.66518C4.72715 6.67654 4.72715 6.68847 4.73014 6.69983C4.72828 6.71325 4.72828 6.72685 4.73014 6.74026C4.73178 6.75658 4.73178 6.77303 4.73014 6.78935C4.7389 6.74938 4.7389 6.70804 4.73014 6.66807C4.72942 6.63299 4.73751 6.59828 4.7537 6.567C4.75043 6.59096 4.75043 6.61523 4.7537 6.63919C4.7537 6.67384 4.7537 6.70272 4.7537 6.7316C4.7537 6.76047 4.78021 6.7316 4.78316 6.65652C4.7861 6.58144 4.80672 6.57566 4.80083 6.52657C4.83323 6.56411 4.80083 6.65652 4.80083 6.65652C4.84795 6.59876 4.82439 6.57277 4.8185 6.52368C4.81261 6.47459 4.86268 6.4486 4.86268 6.4486C4.86268 6.4486 4.86268 6.51791 4.86268 6.5208C4.86268 6.52368 4.92748 6.49192 4.92748 6.49192C4.92748 6.49192 5.00994 6.47459 5.00994 6.40529C5.00994 6.40529 5.04529 6.48326 5.0983 6.40529C5.09879 6.41304 5.10087 6.42062 5.10441 6.42756C5.10795 6.43451 5.11289 6.44068 5.11892 6.44572C5.18666 6.46882 5.15721 6.34754 5.15721 6.34754C5.16878 6.35527 5.17877 6.36507 5.18666 6.37641C5.22201 6.4255 5.20139 6.33887 5.20139 6.33887C5.15426 6.25224 4.96282 6.21182 4.87446 6.20315C4.77645 6.19526 4.67794 6.19526 4.57993 6.20315C4.47639 6.20863 4.37868 6.2519 4.30602 6.32443C4.20431 6.44326 4.14077 6.58896 4.12341 6.74315C4.06451 6.99726 3.99971 7.19651 3.99971 7.23116C3.99971 7.40154 4.16465 7.30913 4.17937 7.18496" fill="white"/>
<path d="M5.69914 10.1246C5.50475 10.0322 5.34276 9.97733 5.34276 9.97733C5.04823 10.0495 5.23084 10.1621 5.27207 10.1823C5.46135 10.264 5.64357 10.3606 5.81695 10.4711C6.0349 10.6068 6.33827 10.8032 6.3471 10.6039C6.17722 10.3912 5.95252 10.2267 5.69619 10.1275" fill="white"/>
<path d="M3.73463 3.60135C3.42034 3.60257 3.11726 3.48701 2.88638 3.27793C3.03996 3.4715 3.2413 3.62352 3.47141 3.71966C3.70151 3.81581 3.9528 3.8529 4.20158 3.82745C4.45036 3.802 4.68843 3.71484 4.89333 3.57419C5.09823 3.43355 5.26322 3.24405 5.37274 3.02357C5.48225 2.80309 5.53268 2.55889 5.51927 2.31401C5.50586 2.06912 5.42906 1.83162 5.29609 1.62391C5.16313 1.41619 4.9784 1.2451 4.75931 1.12677C4.54023 1.00844 4.29401 0.946774 4.04388 0.947584C3.82215 0.945896 3.60289 0.993323 3.40247 1.08632C3.20204 1.17933 3.02563 1.3155 2.88638 1.48469C3.03528 1.3508 3.21521 1.25452 3.41061 1.20417C3.60601 1.15383 3.81099 1.15095 4.00778 1.19578C4.20457 1.2406 4.38725 1.33179 4.54 1.46143C4.69275 1.59108 4.81096 1.75528 4.8844 1.93981C4.95783 2.12434 4.98428 2.32365 4.96145 2.52046C4.93862 2.71727 4.8672 2.90566 4.75338 3.06931C4.63955 3.23297 4.48675 3.36695 4.30821 3.45965C4.12967 3.55236 3.93077 3.601 3.72874 3.60135" fill="white"/>
<path d="M4.28835 7.9213L4.18821 7.87799C4.1223 7.85715 4.06599 7.81421 4.02916 7.75671C4.0056 7.70184 4.0704 7.62676 4.09985 7.60366C4.1293 7.58056 4.00266 7.70762 4.28835 7.91842M4.53281 8.97241C4.63295 9.2092 4.81261 9.16011 4.81261 9.16011C4.47685 9.31605 4.35904 9.89647 4.35904 9.89647C4.38849 9.42 4.61233 9.29006 4.54164 8.9753M4.14697 7.65853C4.14697 7.56901 4.21472 7.54591 4.25595 7.52858C4.19915 7.53953 4.14691 7.56665 4.10574 7.60655C4.0667 7.63836 4.03027 7.67311 3.99677 7.7105C3.86844 7.85377 3.76855 8.01928 3.70224 8.19852C3.62348 8.43766 3.57984 8.68657 3.57264 8.93776C3.57264 9.07348 3.52846 9.55572 3.51668 9.86471C3.51668 10.0668 3.49901 10.1968 3.49901 10.2921C3.49901 10.3874 3.47545 13.1624 3.47545 13.1624L3.52846 12.5242L3.68162 10.9822C3.68162 10.9822 3.75525 10.4047 3.76998 10.0235C3.7847 9.64235 3.81416 8.94931 3.82888 8.84825C3.84765 8.69973 3.89144 8.55531 3.95848 8.42087L3.88484 10.731C3.88484 10.731 3.90252 11.2306 3.90841 11.4125C3.90841 11.4125 3.88779 12.5358 3.88779 12.5849L4.03505 13.353C4.06773 13.3671 4.10396 13.3713 4.13911 13.3652C4.17426 13.359 4.20673 13.3427 4.23239 13.3184L4.14403 13.0845L4.01444 12.4001C4.04012 12.3956 4.06378 12.3835 4.08218 12.3654C4.10611 12.3357 4.12319 12.3012 4.13225 12.2644C4.20443 11.6594 4.31062 11.0588 4.45034 10.4653C4.52986 10.2314 4.55932 9.62792 5.15426 9.26985C5.10124 9.22379 5.03579 9.19371 4.96577 9.18321C4.84795 9.163 4.87741 9.15434 4.87741 9.15434C4.92159 9.08215 4.79788 8.91177 4.79788 8.91177C4.70286 8.76783 4.59009 8.63592 4.46212 8.51905C4.31486 8.35157 4.46212 8.29959 4.46212 8.29959C4.48442 8.39048 4.52889 8.47471 4.59171 8.54504C4.65062 8.62589 4.80967 8.91177 4.80967 8.91177C4.83529 8.64219 4.75171 8.37354 4.57699 8.16387C4.51405 8.09111 4.4472 8.02171 4.37671 7.95596L4.30602 7.88954C4.27362 7.86066 4.20588 7.79425 4.19999 7.78558C4.1941 7.77692 4.19999 7.77114 4.19999 7.76248C4.23432 7.79355 4.27428 7.81803 4.3178 7.83467C4.55048 7.93285 4.78021 7.97906 4.90686 7.88088C4.92352 7.86105 4.93492 7.8375 4.94006 7.81231C4.9452 7.78712 4.94391 7.76108 4.93631 7.73649C4.92002 7.71639 4.90973 7.69225 4.90661 7.66676C4.90349 7.64126 4.90766 7.61542 4.91864 7.59211C4.91864 7.56323 4.93926 7.53147 4.85974 7.52569C4.82549 7.52393 4.79201 7.51503 4.76154 7.4996C4.73107 7.48416 4.7043 7.46254 4.68302 7.43617C4.67398 7.41296 4.66804 7.38869 4.66535 7.36398C4.64793 7.36815 4.62975 7.36815 4.61233 7.36398C4.61233 7.36398 4.57699 7.4073 4.54753 7.39286C4.5275 7.40299 4.50528 7.40828 4.48274 7.40828C4.46019 7.40828 4.43798 7.40299 4.41794 7.39286L4.32075 7.42174C4.31702 7.46934 4.30297 7.51561 4.27951 7.55746L4.17054 7.6874" fill="white"/>
<path d="M7.26014 19.6828C6.30304 19.69 5.37061 19.3853 4.60938 18.8165C4.25318 19.0841 3.85539 19.2937 3.43126 19.4373C3.69952 19.5996 3.97791 19.7453 4.26478 19.8734C4.37964 19.8041 4.49451 19.7261 4.59759 19.6452C5.36082 20.2087 6.29301 20.5083 7.24836 20.4971C8.20367 20.5081 9.13579 20.2085 9.89912 19.6452C10.006 19.7268 10.1171 19.8029 10.2319 19.8734C10.5188 19.7453 10.7972 19.5997 11.0655 19.4373C10.6412 19.2941 10.2433 19.0844 9.88734 18.8165C9.12589 19.3849 8.1936 19.6896 7.23658 19.6828" fill="white"/>
<path d="M9.38665 6.61031C9.32151 6.62307 9.25445 6.62307 9.18931 6.61031C9.12332 6.59943 9.06307 6.56684 9.01849 6.51791C9.01849 6.49192 9.01849 6.48614 9.03321 6.48903C9.04794 6.49192 9.06266 6.52079 9.07445 6.54101C9.1043 6.57544 9.14451 6.5997 9.18931 6.61031C9.18864 6.58442 9.17814 6.55971 9.15986 6.54101C9.17953 6.56148 9.20371 6.57728 9.23055 6.58721C9.44555 6.63341 9.33069 6.53812 9.33069 6.53812C9.48679 6.60742 9.43966 6.68828 9.4809 6.7778C9.46604 6.74491 9.45325 6.71115 9.44261 6.67673C9.41315 6.62186 9.3837 6.61609 9.3837 6.61609M9.08917 6.79801C9.07041 6.79866 9.05189 6.79362 9.03616 6.78357C9.09064 6.74562 9.15498 6.72359 9.22171 6.72004C9.24625 6.72059 9.2703 6.7269 9.29182 6.73846C9.31335 6.75002 9.33173 6.76648 9.34541 6.78646C9.30513 6.76869 9.26146 6.7595 9.21729 6.7595C9.17312 6.7595 9.12945 6.76869 9.08917 6.78646M9.24822 6.78646C9.22466 6.80956 9.24822 6.8471 9.18637 6.85288C9.12452 6.85865 9.12157 6.78357 9.12157 6.78357C9.15568 6.76763 9.19278 6.75878 9.23055 6.75758C9.27473 6.75758 9.28945 6.77491 9.28945 6.77491C9.28303 6.77185 9.27598 6.77025 9.26883 6.77025C9.26169 6.77025 9.25464 6.77185 9.24822 6.77491M9.66645 7.18785C9.64878 7.14453 9.64583 7.04346 9.62816 6.97993C9.60764 6.93096 9.57985 6.88522 9.54569 6.84421C9.57711 6.87856 9.6139 6.9078 9.65467 6.93084C9.71279 6.96618 9.75494 7.02197 9.77248 7.08678C9.76583 7.07705 9.75645 7.06943 9.74547 7.06481C9.7345 7.0602 9.7224 7.05881 9.71063 7.06079C9.67823 7.06079 9.66056 7.13009 9.66939 7.19073C9.73419 7.26581 9.75186 7.16474 9.75186 7.16474C9.75794 7.17373 9.76118 7.18428 9.76118 7.19507C9.76118 7.20585 9.75794 7.2164 9.75186 7.22539C9.75186 7.22539 9.7931 7.2687 9.84317 7.22539C9.89324 7.18207 9.87851 7.05213 9.73125 6.93662C9.58398 6.82111 9.58693 6.75181 9.58693 6.75181C9.61939 6.7944 9.66322 6.82737 9.71357 6.8471C9.74618 6.85715 9.77621 6.87396 9.80162 6.89638C9.82702 6.9188 9.84722 6.94631 9.86084 6.97705C9.86084 6.97705 9.86084 6.94528 9.77248 6.93373C9.77248 6.93373 9.94625 7.11277 9.89324 7.2225C9.91417 7.20936 9.93102 7.19082 9.94193 7.16892C9.95284 7.14702 9.95739 7.1226 9.95509 7.09833C9.95509 7.09833 10.011 7.14453 10.011 7.18785C10.011 7.18785 10.067 7.11277 9.94331 6.98571C9.90849 6.95106 9.88316 6.90835 9.86967 6.86154C9.84957 6.831 9.82473 6.80372 9.79604 6.78068C9.76289 6.73804 9.73975 6.68874 9.7283 6.6363C9.74151 6.66266 9.76326 6.68399 9.79015 6.69694C9.80046 6.64102 9.7922 6.58333 9.76659 6.53235C9.79134 6.55918 9.81036 6.5906 9.82255 6.62475C9.8358 6.66929 9.85672 6.71129 9.8844 6.74892C9.90024 6.76867 9.91159 6.79151 9.91769 6.81592C9.92379 6.84032 9.92449 6.86572 9.91974 6.89042C9.91974 6.9655 9.97865 6.98571 9.99338 7.00015C10.0208 7.02014 10.0429 7.04634 10.0578 7.07651C10.0726 7.10667 10.0798 7.13992 10.0788 7.17341C10.0788 7.17341 10.123 7.10988 10.0523 6.99726C9.9816 6.88464 10.011 6.85576 10.0169 6.84421C10.0209 6.86571 10.0298 6.88602 10.0431 6.90356C10.0564 6.92109 10.0737 6.93537 10.0935 6.94528C10.0935 6.94528 10.1082 6.90485 10.0081 6.78646C9.90616 6.68872 9.84611 6.55652 9.84022 6.41684C9.84022 6.41684 9.84022 6.46882 9.92858 6.51502C9.91286 6.4782 9.8991 6.44061 9.88735 6.4024C9.88735 6.35909 9.85495 6.19738 9.59282 6.14828C9.428 6.15185 9.26526 6.18513 9.11273 6.24647C9.06742 6.2753 9.03003 6.31461 9.00384 6.36093C8.97765 6.40726 8.96346 6.45918 8.96252 6.51213C8.9798 6.56441 9.00459 6.614 9.03616 6.6594C9.03616 6.6594 9.03616 6.68539 9.03616 6.69983C9.03685 6.71233 9.03685 6.72487 9.03616 6.73737C9.03616 6.75181 9.01554 6.78935 9.03616 6.8009C9.04123 6.81292 9.04123 6.82642 9.03616 6.83844C9.03616 6.88175 8.98903 7.04635 8.98903 7.07523C8.98903 7.1041 8.98903 7.14453 9.05088 7.13876H9.09801C9.09979 7.16279 9.09979 7.18692 9.09801 7.21095C9.10741 7.20353 9.11831 7.19815 9.12999 7.19517C9.14166 7.19218 9.15385 7.19165 9.16575 7.19362H9.26883L9.17753 7.21384C9.15999 7.2168 9.14206 7.2168 9.12452 7.21384V7.24849C9.16598 7.24594 9.20629 7.23409 9.24233 7.21384C9.23087 7.23463 9.21347 7.2517 9.19226 7.26293C9.15691 7.26293 9.13924 7.26293 9.12452 7.2456C9.13565 7.2501 9.14521 7.25768 9.15201 7.26743C9.15881 7.27718 9.16256 7.28866 9.1628 7.30047C9.1628 7.34378 9.14219 7.4102 9.21287 7.41597H9.33069C9.36198 7.41981 9.39364 7.41981 9.42494 7.41597C9.46322 7.41597 9.65467 7.32357 9.68707 7.22827" fill="white"/>
<path d="M13.1949 14.433H11.8872V13.6418H10.5648V14.433H9.24232V13.6418H7.91989V14.433H6.59745V13.6418H5.27796V14.433H3.95553V13.6418H2.63309V14.433H1.31065V13.6418H0.00294495C0.0207655 14.1704 0.0988096 14.6953 0.235623 15.2069C0.785039 15.436 1.37631 15.5529 1.97334 15.5505C2.93041 15.5576 3.86277 15.2529 4.62411 14.6842C5.38555 15.2527 6.31784 15.5574 7.27487 15.5505C8.2319 15.5574 9.16419 15.2527 9.92563 14.6842C10.687 15.2529 11.6193 15.5576 12.5764 15.5505C13.1705 15.5519 13.7586 15.435 14.3053 15.2069C14.4443 14.6946 14.5243 14.1687 14.5438 13.6389H13.1949V14.433Z" fill="white"/>
<path d="M4.49158 7.90976C4.41205 7.89533 4.43562 7.9473 4.46212 7.97329C4.67904 8.17069 4.8239 8.43241 4.87446 8.71831C4.87446 8.71831 5.06002 8.78473 5.08947 8.52484C5.0972 8.3578 5.07527 8.19072 5.02467 8.03105C5.02467 8.03105 5.04529 8.06859 5.1042 8.21586C5.15307 8.36952 5.18178 8.52866 5.18961 8.68943C5.20392 8.64155 5.21184 8.59205 5.21317 8.54216C5.21317 8.49596 5.21317 8.44398 5.21317 8.40067C5.22468 8.29426 5.2167 8.18668 5.18961 8.08302C5.17444 8.04248 5.15468 8.00374 5.1307 7.96752L4.9481 7.71918C4.94025 7.76681 4.91641 7.81051 4.88035 7.84335C4.82785 7.88489 4.7655 7.91277 4.69908 7.92438C4.63266 7.93599 4.56432 7.93096 4.50041 7.90976" fill="white"/>
<path d="M9.42788 7.852C9.50667 7.87397 9.58764 7.88752 9.6694 7.89243C9.74868 7.88921 9.82621 7.86848 9.89618 7.83179C9.94566 7.7972 9.98937 7.75531 10.0258 7.70762C10.0435 7.68587 10.0592 7.66268 10.0729 7.63831C10.0734 7.63062 10.0734 7.62291 10.0729 7.61521C10.0729 7.58056 10.0729 7.51703 9.98749 7.44484C9.9514 7.40682 9.92248 7.36282 9.90208 7.31489C9.88881 7.31799 9.875 7.31804 9.86171 7.31504C9.84843 7.31203 9.83603 7.30605 9.8255 7.29757C9.81242 7.30243 9.79816 7.30338 9.78453 7.3003C9.7709 7.29722 9.7585 7.29024 9.74892 7.28024C9.73125 7.28024 9.69001 7.28024 9.67234 7.22249C9.69296 7.30046 9.52802 7.37842 9.46912 7.4535C9.41021 7.52858 9.3837 7.43906 9.35425 7.47372C9.3248 7.50837 9.37487 7.53724 9.37487 7.56323C9.37396 7.6009 9.37101 7.63849 9.36603 7.67585C9.36603 7.72783 9.33658 7.84045 9.41905 7.86066" fill="white"/>
<path d="M10.5736 13.2404C10.5736 13.1855 10.5382 13.1913 10.4793 13.2144C10.4204 13.2375 10.3556 13.1942 10.3085 13.1855C10.2614 13.1769 10.2555 13.1855 10.2143 13.1855C10.1812 13.1919 10.1472 13.1919 10.1141 13.1855C9.99337 13.1711 10.0052 13.301 10.0052 13.301C10.0099 13.3154 10.0169 13.3291 10.0258 13.3415C10.0487 13.356 10.0735 13.3677 10.0994 13.3761C10.1141 13.3761 10.0994 13.3934 10.123 13.4079C10.1465 13.4223 10.2761 13.5176 10.3615 13.4223C10.3821 13.379 10.2673 13.3097 10.2791 13.3155C10.3136 13.3329 10.3445 13.3564 10.3704 13.3848C10.4057 13.4252 10.4617 13.4541 10.497 13.4165C10.5324 13.379 10.4087 13.2866 10.4087 13.2866C10.4432 13.304 10.4741 13.3275 10.5 13.3559C10.5382 13.3992 10.5677 13.4165 10.5824 13.3559C10.5634 13.3196 10.5362 13.288 10.5029 13.2635C10.5232 13.2746 10.542 13.2882 10.5589 13.3039C10.5942 13.3357 10.6237 13.327 10.6148 13.2693C10.6031 13.2548 10.5892 13.2422 10.5736 13.2317" fill="white"/>
</g>
<defs>
<clipPath id="clip0_618_53">
<rect width="15" height="20" fill="white" transform="translate(0 0.5)"/>
</clipPath>
</defs>
</svg>
