<svg width="395" height="263" viewBox="0 0 395 263" fill="none" xmlns="http://www.w3.org/2000/svg">
<g opacity="0.2">
<g opacity="0.5" clip-path="url(#clip0_653_594)">
<path d="M5.925 23.8911C6.97261 23.8911 7.9773 23.4716 8.71807 22.7249C9.45884 21.9781 9.875 20.9653 9.875 19.9093C9.875 18.8532 9.45884 17.8404 8.71807 17.0937C7.9773 16.3469 6.97261 15.9274 5.925 15.9274C4.87739 15.9274 3.8727 16.3469 3.13193 17.0937C2.39116 17.8404 1.975 18.8532 1.975 19.9093C1.975 20.9653 2.39116 21.9781 3.13193 22.7249C3.8727 23.4716 4.87739 23.8911 5.925 23.8911ZM3.95 25.8821C1.77133 25.8821 0 27.6677 0 29.8639C0 30.9651 0.882578 31.8548 1.975 31.8548H9.875C10.9674 31.8548 11.85 30.9651 11.85 29.8639C11.85 27.6677 10.0787 25.8821 7.9 25.8821H3.95ZM19.75 23.8911C20.7976 23.8911 21.8023 23.4716 22.5431 22.7249C23.2838 21.9781 23.7 20.9653 23.7 19.9093C23.7 18.8532 23.2838 17.8404 22.5431 17.0937C21.8023 16.3469 20.7976 15.9274 19.75 15.9274C18.7024 15.9274 17.6977 16.3469 16.9569 17.0937C16.2162 17.8404 15.8 18.8532 15.8 19.9093C15.8 20.9653 16.2162 21.9781 16.9569 22.7249C17.6977 23.4716 18.7024 23.8911 19.75 23.8911ZM17.775 25.8821C15.5963 25.8821 13.825 27.6677 13.825 29.8639C13.825 30.9651 14.7076 31.8548 15.8 31.8548H23.7C24.7924 31.8548 25.675 30.9651 25.675 29.8639C25.675 27.6677 23.9037 25.8821 21.725 25.8821H17.775ZM37.525 19.9093C37.525 18.8532 37.1088 17.8404 36.3681 17.0937C35.6273 16.3469 34.6226 15.9274 33.575 15.9274C32.5274 15.9274 31.5227 16.3469 30.7819 17.0937C30.0412 17.8404 29.625 18.8532 29.625 19.9093C29.625 20.9653 30.0412 21.9781 30.7819 22.7249C31.5227 23.4716 32.5274 23.8911 33.575 23.8911C34.6226 23.8911 35.6273 23.4716 36.3681 22.7249C37.1088 21.9781 37.525 20.9653 37.525 19.9093ZM27.65 29.8639C27.65 30.9651 28.5326 31.8548 29.625 31.8548H37.525C38.6174 31.8548 39.5 30.9651 39.5 29.8639C39.5 27.6677 37.7287 25.8821 35.55 25.8821H31.6C29.4213 25.8821 27.65 27.6677 27.65 29.8639Z" fill="#F8F9FA"/>
<path opacity="0.4" d="M1.97498 3.98186C1.97498 1.78561 3.7463 0 5.92498 0H33.575C35.7536 0 37.525 1.78561 37.525 3.98186V15.4546C36.4758 14.5089 35.0933 13.9365 33.575 13.9365V3.98186H5.92498V13.9365C4.40669 13.9365 3.02419 14.5089 1.97498 15.4546V3.98186Z" fill="#F8F9FA"/>
</g>
<g opacity="0.5" clip-path="url(#clip1_653_594)">
<path d="M214.893 157.891C215.94 157.891 216.945 157.472 217.686 156.725C218.427 155.978 218.843 154.965 218.843 153.909C218.843 152.853 218.427 151.84 217.686 151.094C216.945 150.347 215.94 149.927 214.893 149.927C213.845 149.927 212.84 150.347 212.1 151.094C211.359 151.84 210.943 152.853 210.943 153.909C210.943 154.965 211.359 155.978 212.1 156.725C212.84 157.472 213.845 157.891 214.893 157.891ZM212.918 159.882C210.739 159.882 208.968 161.668 208.968 163.864C208.968 164.965 209.85 165.855 210.943 165.855H218.843C219.935 165.855 220.818 164.965 220.818 163.864C220.818 161.668 219.046 159.882 216.868 159.882H212.918ZM228.718 157.891C229.765 157.891 230.77 157.472 231.511 156.725C232.252 155.978 232.668 154.965 232.668 153.909C232.668 152.853 232.252 151.84 231.511 151.094C230.77 150.347 229.765 149.927 228.718 149.927C227.67 149.927 226.665 150.347 225.925 151.094C225.184 151.84 224.768 152.853 224.768 153.909C224.768 154.965 225.184 155.978 225.925 156.725C226.665 157.472 227.67 157.891 228.718 157.891ZM226.743 159.882C224.564 159.882 222.793 161.668 222.793 163.864C222.793 164.965 223.675 165.855 224.768 165.855H232.668C233.76 165.855 234.643 164.965 234.643 163.864C234.643 161.668 232.871 159.882 230.693 159.882H226.743ZM246.493 153.909C246.493 152.853 246.077 151.84 245.336 151.094C244.595 150.347 243.59 149.927 242.543 149.927C241.495 149.927 240.49 150.347 239.75 151.094C239.009 151.84 238.593 152.853 238.593 153.909C238.593 154.965 239.009 155.978 239.75 156.725C240.49 157.472 241.495 157.891 242.543 157.891C243.59 157.891 244.595 157.472 245.336 156.725C246.077 155.978 246.493 154.965 246.493 153.909ZM236.618 163.864C236.618 164.965 237.5 165.855 238.593 165.855H246.493C247.585 165.855 248.468 164.965 248.468 163.864C248.468 161.668 246.696 159.882 244.518 159.882H240.568C238.389 159.882 236.618 161.668 236.618 163.864Z" fill="#F8F9FA"/>
<path opacity="0.4" d="M210.943 137.982C210.943 135.786 212.714 134 214.893 134H242.543C244.721 134 246.493 135.786 246.493 137.982V149.455C245.444 148.509 244.061 147.936 242.543 147.936V137.982H214.893V147.936C213.374 147.936 211.992 148.509 210.943 149.455V137.982Z" fill="#F8F9FA"/>
</g>
<g opacity="0.5" clip-path="url(#clip2_653_594)">
<path d="M156.726 67.9909C156.726 66.8897 157.621 66 158.728 66H190.77C191.877 66 192.772 66.8897 192.772 67.9909C192.772 69.0922 191.877 69.9819 190.77 69.9819H158.728C157.621 69.9819 156.726 69.0922 156.726 67.9909ZM172.746 90.0591V87.9002H176.752V90.0591L181.17 94.4516C181.952 95.2293 181.952 96.4923 181.17 97.27C180.387 98.0477 179.117 98.0477 178.335 97.27L174.749 93.705L171.157 97.2762C170.375 98.0539 169.104 98.0539 168.322 97.2762C167.54 96.4985 167.54 95.2355 168.322 94.4578L172.746 90.0591Z" fill="#F8F9FA"/>
<path opacity="0.4" d="M158.728 83.9183V69.9818H162.734V83.9183H186.764V69.9818H190.77V83.9183C190.77 86.1146 188.973 87.9002 186.764 87.9002H162.734C160.524 87.9002 158.728 86.1146 158.728 83.9183Z" fill="#F8F9FA"/>
</g>
<g opacity="0.5" clip-path="url(#clip3_653_594)">
<path d="M54.9576 69.9818H86.8768V87.9002H54.9576V69.9818Z" fill="#F8F9FA"/>
<path opacity="0.4" d="M54.9577 69.9819V87.9002H86.8769V69.9819H54.9577ZM50.9678 69.9819C50.9678 67.7856 52.757 66 54.9577 66H86.8769C89.0775 66 90.8668 67.7856 90.8668 69.9819V87.9002C90.8668 90.0964 89.0775 91.8821 86.8769 91.8821H54.9577C52.757 91.8821 50.9678 90.0964 50.9678 87.9002V69.9819ZM58.9476 93.873H82.887C83.9904 93.873 84.8819 94.7627 84.8819 95.8639C84.8819 96.9651 83.9904 97.8548 82.887 97.8548H58.9476C57.8441 97.8548 56.9526 96.9651 56.9526 95.8639C56.9526 94.7627 57.8441 93.873 58.9476 93.873Z" fill="#F8F9FA"/>
</g>
<g opacity="0.5" clip-path="url(#clip4_653_594)">
<path d="M307.264 137.982H339.183V155.9H307.264V137.982Z" fill="#F8F9FA"/>
<path opacity="0.4" d="M307.264 137.982V155.9H339.183V137.982H307.264ZM303.274 137.982C303.274 135.786 305.063 134 307.264 134H339.183C341.384 134 343.173 135.786 343.173 137.982V155.9C343.173 158.096 341.384 159.882 339.183 159.882H307.264C305.063 159.882 303.274 158.096 303.274 155.9V137.982ZM311.254 161.873H335.193C336.297 161.873 337.188 162.763 337.188 163.864C337.188 164.965 336.297 165.855 335.193 165.855H311.254C310.151 165.855 309.259 164.965 309.259 163.864C309.259 162.763 310.151 161.873 311.254 161.873Z" fill="#F8F9FA"/>
</g>
<g opacity="0.5" clip-path="url(#clip5_653_594)">
<path d="M317.487 3.98186H337.665V23.8911H317.487V3.98186Z" fill="#F8F9FA"/>
<path opacity="0.4" d="M313.452 3.98185C313.452 1.78561 315.261 0 317.487 0H337.665C339.891 0 341.7 1.78561 341.7 3.98185V27.873C341.7 30.0692 339.891 31.8548 337.665 31.8548H317.487C315.261 31.8548 313.452 30.0692 313.452 27.873V3.98185ZM329.594 27.873C329.594 27.345 329.381 26.8386 329.003 26.4652C328.624 26.0918 328.111 25.8821 327.576 25.8821C327.041 25.8821 326.528 26.0918 326.149 26.4652C325.771 26.8386 325.558 27.345 325.558 27.873C325.558 28.401 325.771 28.9074 326.149 29.2808C326.528 29.6542 327.041 29.8639 327.576 29.8639C328.111 29.8639 328.624 29.6542 329.003 29.2808C329.381 28.9074 329.594 28.401 329.594 27.873ZM337.665 3.98185H317.487V23.8911H337.665V3.98185Z" fill="#F8F9FA"/>
</g>
<g opacity="0.5" clip-path="url(#clip6_653_594)">
<path d="M268.855 69.9819C268.855 67.7856 270.637 66 272.829 66H292.698C294.89 66 296.672 67.7856 296.672 69.9819V89.8911H268.855V69.9819Z" fill="#F8F9FA"/>
<path opacity="0.4" d="M296.672 89.8911H268.855V93.873C268.855 96.0692 270.637 97.8548 272.829 97.8548H292.698C294.89 97.8548 296.672 96.0692 296.672 93.873V89.8911ZM279.783 92.8775H285.744C286.29 92.8775 286.737 93.3255 286.737 93.873C286.737 94.4205 286.29 94.8684 285.744 94.8684H279.783C279.237 94.8684 278.789 94.4205 278.789 93.873C278.789 93.3255 279.237 92.8775 279.783 92.8775Z" fill="#F8F9FA"/>
</g>
<g opacity="0.5" clip-path="url(#clip7_653_594)">
<path d="M367.127 79.9365C367.127 77.7403 368.913 75.9547 371.109 75.9547H383.054C385.251 75.9547 387.036 77.7403 387.036 79.9365V89.8911C387.036 92.0874 385.251 93.873 383.054 93.873H371.109C368.913 93.873 367.127 92.0874 367.127 89.8911V79.9365Z" fill="#F8F9FA"/>
<path opacity="0.4" d="M373.66 66.4357C373.075 65.8508 372.129 65.8508 371.551 66.4357C370.972 67.0205 370.966 67.9662 371.551 68.5448L374.972 71.9667H368.122C365.372 71.9729 363.145 74.2003 363.145 76.9503V92.8777C363.145 95.6276 365.372 97.855 368.122 97.855H390.023C392.773 97.855 395 95.6276 395 92.8777V76.9503C395 74.2003 392.773 71.9729 390.023 71.9729H383.173L386.595 68.551C387.179 67.9662 387.179 67.0205 386.595 66.4419C386.01 65.8633 385.064 65.8571 384.485 66.4419L379.073 71.8547L373.66 66.4357ZM389.525 80.4344C389.525 80.0384 389.682 79.6586 389.962 79.3785C390.242 79.0985 390.622 78.9412 391.018 78.9412C391.414 78.9412 391.794 79.0985 392.074 79.3785C392.354 79.6586 392.511 80.0384 392.511 80.4344C392.511 80.8304 392.354 81.2102 392.074 81.4902C391.794 81.7703 391.414 81.9276 391.018 81.9276C390.622 81.9276 390.242 81.7703 389.962 81.4902C389.682 81.2102 389.525 80.8304 389.525 80.4344ZM391.018 83.9185C391.414 83.9185 391.794 84.0758 392.074 84.3558C392.354 84.6359 392.511 85.0157 392.511 85.4117C392.511 85.8077 392.354 86.1875 392.074 86.4675C391.794 86.7476 391.414 86.9049 391.018 86.9049C390.622 86.9049 390.242 86.7476 389.962 86.4675C389.682 86.1875 389.525 85.8077 389.525 85.4117C389.525 85.0157 389.682 84.6359 389.962 84.3558C390.242 84.0758 390.622 83.9185 391.018 83.9185ZM367.127 79.9366C367.127 77.7404 368.913 75.9548 371.109 75.9548H383.054C385.251 75.9548 387.036 77.7404 387.036 79.9366V89.8913C387.036 92.0875 385.251 93.8731 383.054 93.8731H371.109C368.913 93.8731 367.127 92.0875 367.127 89.8913V79.9366Z" fill="#F8F9FA"/>
</g>
<g opacity="0.5" clip-path="url(#clip8_653_594)">
<path d="M109.74 147.937C109.74 145.74 111.525 143.955 113.722 143.955H125.667C127.864 143.955 129.649 145.74 129.649 147.937V157.891C129.649 160.087 127.864 161.873 125.667 161.873H113.722C111.525 161.873 109.74 160.087 109.74 157.891V147.937Z" fill="#F8F9FA"/>
<path opacity="0.4" d="M116.273 134.436C115.688 133.851 114.742 133.851 114.164 134.436C113.585 135.021 113.579 135.966 114.164 136.545L117.585 139.967H110.735C107.985 139.973 105.758 142.2 105.758 144.95V160.878C105.758 163.628 107.985 165.855 110.735 165.855H132.636C135.386 165.855 137.613 163.628 137.613 160.878V144.95C137.613 142.2 135.386 139.973 132.636 139.973H125.786L129.207 136.551C129.792 135.966 129.792 135.021 129.207 134.442C128.623 133.863 127.677 133.857 127.098 134.442L121.685 139.855L116.273 134.436ZM132.138 148.434C132.138 148.038 132.295 147.659 132.575 147.379C132.855 147.098 133.235 146.941 133.631 146.941C134.027 146.941 134.407 147.098 134.687 147.379C134.967 147.659 135.124 148.038 135.124 148.434C135.124 148.83 134.967 149.21 134.687 149.49C134.407 149.77 134.027 149.928 133.631 149.928C133.235 149.928 132.855 149.77 132.575 149.49C132.295 149.21 132.138 148.83 132.138 148.434ZM133.631 151.918C134.027 151.918 134.407 152.076 134.687 152.356C134.967 152.636 135.124 153.016 135.124 153.412C135.124 153.808 134.967 154.188 134.687 154.468C134.407 154.748 134.027 154.905 133.631 154.905C133.235 154.905 132.855 154.748 132.575 154.468C132.295 154.188 132.138 153.808 132.138 153.412C132.138 153.016 132.295 152.636 132.575 152.356C132.855 152.076 133.235 151.918 133.631 151.918ZM109.74 147.937C109.74 145.74 111.526 143.955 113.722 143.955H125.667C127.864 143.955 129.649 145.74 129.649 147.937V157.891C129.649 160.088 127.864 161.873 125.667 161.873H113.722C111.526 161.873 109.74 160.088 109.74 157.891V147.937Z" fill="#F8F9FA"/>
</g>
<g opacity="0.5" clip-path="url(#clip9_653_594)">
<path d="M137.558 3.98186H109.733V21.9002H137.558V3.98186ZM131.596 27.873H127.292L126.627 25.8821H120.665L120 27.873H115.696C114.596 27.873 113.708 28.7627 113.708 29.8639C113.708 30.9651 114.596 31.8548 115.696 31.8548H131.596C132.695 31.8548 133.583 30.9651 133.583 29.8639C133.583 28.7627 132.695 27.873 131.596 27.873Z" fill="#F8F9FA"/>
<path opacity="0.4" d="M109.733 0C107.541 0 105.758 1.78561 105.758 3.98185V21.9002C105.758 24.0964 107.541 25.8821 109.733 25.8821H137.558C139.751 25.8821 141.533 24.0964 141.533 21.9002V3.98185C141.533 1.78561 139.751 0 137.558 0H109.733ZM137.558 3.98185V21.9002H109.733V3.98185H137.558Z" fill="#F8F9FA"/>
</g>
<g opacity="0.5" clip-path="url(#clip10_653_594)">
<path d="M211.687 5.97278H231.656V19.9093H211.687V5.97278ZM210.689 1.99092C209.035 1.99092 207.694 3.32858 207.694 4.97731V20.9047C207.694 22.5535 209.035 23.8911 210.689 23.8911H219.007L218.339 25.8821H213.684C212.58 25.8821 211.687 26.7717 211.687 27.873C211.687 28.9742 212.58 29.8639 213.684 29.8639H229.659C230.764 29.8639 231.656 28.9742 231.656 27.873C231.656 26.7717 230.764 25.8821 229.659 25.8821H224.998L224.33 23.8911H232.654C234.308 23.8911 235.65 22.5535 235.65 20.9047V4.97731C235.65 3.32858 234.308 1.99092 232.654 1.99092H210.689Z" fill="#F8F9FA"/>
<path opacity="0.4" d="M240.642 1.99092C238.988 1.99092 237.647 3.32858 237.647 4.97731V26.8775C237.647 28.5263 238.988 29.8639 240.642 29.8639H244.636C246.289 29.8639 247.631 28.5263 247.631 26.8775V4.97731C247.631 3.32858 246.289 1.99092 244.636 1.99092H240.642ZM241.64 5.97278H243.637C244.186 5.97278 244.636 6.42073 244.636 6.96824C244.636 7.51574 244.186 7.9637 243.637 7.9637H241.64C241.091 7.9637 240.642 7.51574 240.642 6.96824C240.642 6.42073 241.091 5.97278 241.64 5.97278ZM240.642 10.9501C240.642 10.4026 241.091 9.95463 241.64 9.95463H243.637C244.186 9.95463 244.636 10.4026 244.636 10.9501C244.636 11.4976 244.186 11.9456 243.637 11.9456H241.64C241.091 11.9456 240.642 11.4976 240.642 10.9501ZM242.639 20.9047C243.168 20.9047 243.676 21.1145 244.051 21.4879C244.425 21.8612 244.636 22.3676 244.636 22.8957C244.636 23.4237 244.425 23.9301 244.051 24.3035C243.676 24.6768 243.168 24.8866 242.639 24.8866C242.109 24.8866 241.601 24.6768 241.227 24.3035C240.852 23.9301 240.642 23.4237 240.642 22.8957C240.642 22.3676 240.852 21.8612 241.227 21.4879C241.601 21.1145 242.109 20.9047 242.639 20.9047Z" fill="#F8F9FA"/>
</g>
<g opacity="0.5" clip-path="url(#clip11_653_594)">
<path d="M3.99374 139.973H23.9624V153.909H3.99374V139.973ZM2.99531 135.991C1.34165 135.991 0 137.329 0 138.977V154.905C0 156.553 1.34165 157.891 2.99531 157.891H11.3135L10.6458 159.882H5.99061C4.88609 159.882 3.99374 160.772 3.99374 161.873C3.99374 162.974 4.88609 163.864 5.99061 163.864H21.9656C23.0701 163.864 23.9624 162.974 23.9624 161.873C23.9624 160.772 23.0701 159.882 21.9656 159.882H17.3041L16.6364 157.891H24.9609C26.6145 157.891 27.9562 156.553 27.9562 154.905V138.977C27.9562 137.329 26.6145 135.991 24.9609 135.991H2.99531Z" fill="#F8F9FA"/>
<path opacity="0.4" d="M32.9483 135.991C31.2947 135.991 29.953 137.329 29.953 138.977V160.878C29.953 162.526 31.2947 163.864 32.9483 163.864H36.942C38.5957 163.864 39.9374 162.526 39.9374 160.878V138.977C39.9374 137.329 38.5957 135.991 36.942 135.991H32.9483ZM33.9467 139.973H35.9436C36.4928 139.973 36.942 140.421 36.942 140.968C36.942 141.516 36.4928 141.964 35.9436 141.964H33.9467C33.3976 141.964 32.9483 141.516 32.9483 140.968C32.9483 140.421 33.3976 139.973 33.9467 139.973ZM32.9483 144.95C32.9483 144.403 33.3976 143.955 33.9467 143.955H35.9436C36.4928 143.955 36.942 144.403 36.942 144.95C36.942 145.498 36.4928 145.946 35.9436 145.946H33.9467C33.3976 145.946 32.9483 145.498 32.9483 144.95ZM34.9452 154.905C35.4748 154.905 35.9827 155.115 36.3572 155.488C36.7317 155.861 36.942 156.368 36.942 156.896C36.942 157.424 36.7317 157.93 36.3572 158.303C35.9827 158.677 35.4748 158.887 34.9452 158.887C34.4156 158.887 33.9077 158.677 33.5332 158.303C33.1587 157.93 32.9483 157.424 32.9483 156.896C32.9483 156.368 33.1587 155.861 33.5332 155.488C33.9077 155.115 34.4156 154.905 34.9452 154.905Z" fill="#F8F9FA"/>
</g>
<g opacity="0.5" clip-path="url(#clip12_653_594)">
<path d="M56.925 222.891C57.9726 222.891 58.9773 222.472 59.7181 221.725C60.4588 220.978 60.875 219.965 60.875 218.909C60.875 217.853 60.4588 216.84 59.7181 216.094C58.9773 215.347 57.9726 214.927 56.925 214.927C55.8774 214.927 54.8727 215.347 54.1319 216.094C53.3912 216.84 52.975 217.853 52.975 218.909C52.975 219.965 53.3912 220.978 54.1319 221.725C54.8727 222.472 55.8774 222.891 56.925 222.891ZM54.95 224.882C52.7713 224.882 51 226.668 51 228.864C51 229.965 51.8826 230.855 52.975 230.855H60.875C61.9674 230.855 62.85 229.965 62.85 228.864C62.85 226.668 61.0787 224.882 58.9 224.882H54.95ZM70.75 222.891C71.7976 222.891 72.8023 222.472 73.5431 221.725C74.2838 220.978 74.7 219.965 74.7 218.909C74.7 217.853 74.2838 216.84 73.5431 216.094C72.8023 215.347 71.7976 214.927 70.75 214.927C69.7024 214.927 68.6977 215.347 67.9569 216.094C67.2162 216.84 66.8 217.853 66.8 218.909C66.8 219.965 67.2162 220.978 67.9569 221.725C68.6977 222.472 69.7024 222.891 70.75 222.891ZM68.775 224.882C66.5963 224.882 64.825 226.668 64.825 228.864C64.825 229.965 65.7076 230.855 66.8 230.855H74.7C75.7924 230.855 76.675 229.965 76.675 228.864C76.675 226.668 74.9037 224.882 72.725 224.882H68.775ZM88.525 218.909C88.525 217.853 88.1088 216.84 87.3681 216.094C86.6273 215.347 85.6226 214.927 84.575 214.927C83.5274 214.927 82.5227 215.347 81.7819 216.094C81.0412 216.84 80.625 217.853 80.625 218.909C80.625 219.965 81.0412 220.978 81.7819 221.725C82.5227 222.472 83.5274 222.891 84.575 222.891C85.6226 222.891 86.6273 222.472 87.3681 221.725C88.1088 220.978 88.525 219.965 88.525 218.909ZM78.65 228.864C78.65 229.965 79.5326 230.855 80.625 230.855H88.525C89.6174 230.855 90.5 229.965 90.5 228.864C90.5 226.668 88.7287 224.882 86.55 224.882H82.6C80.4213 224.882 78.65 226.668 78.65 228.864Z" fill="#F8F9FA"/>
<path opacity="0.4" d="M52.975 202.982C52.975 200.786 54.7463 199 56.925 199H84.575C86.7536 199 88.525 200.786 88.525 202.982V214.455C87.4758 213.509 86.0933 212.936 84.575 212.936V202.982H56.925V212.936C55.4067 212.936 54.0242 213.509 52.975 214.455V202.982Z" fill="#F8F9FA"/>
</g>
<g opacity="0.5" clip-path="url(#clip13_653_594)">
<path d="M368.487 202.982H388.665V222.891H368.487V202.982Z" fill="#F8F9FA"/>
<path opacity="0.4" d="M364.452 202.982C364.452 200.786 366.261 199 368.487 199H388.665C390.891 199 392.7 200.786 392.7 202.982V226.873C392.7 229.069 390.891 230.855 388.665 230.855H368.487C366.261 230.855 364.452 229.069 364.452 226.873V202.982ZM380.594 226.873C380.594 226.345 380.381 225.839 380.003 225.465C379.624 225.092 379.111 224.882 378.576 224.882C378.041 224.882 377.528 225.092 377.149 225.465C376.771 225.839 376.558 226.345 376.558 226.873C376.558 227.401 376.771 227.907 377.149 228.281C377.528 228.654 378.041 228.864 378.576 228.864C379.111 228.864 379.624 228.654 380.003 228.281C380.381 227.907 380.594 227.401 380.594 226.873ZM388.665 202.982H368.487V222.891H388.665V202.982Z" fill="#F8F9FA"/>
</g>
<g opacity="0.5" clip-path="url(#clip14_653_594)">
<path d="M188.558 202.982H160.733V220.9H188.558V202.982ZM182.596 226.873H178.292L177.627 224.882H171.665L171 226.873H166.696C165.596 226.873 164.708 227.763 164.708 228.864C164.708 229.965 165.596 230.855 166.696 230.855H182.596C183.695 230.855 184.583 229.965 184.583 228.864C184.583 227.763 183.695 226.873 182.596 226.873Z" fill="#F8F9FA"/>
<path opacity="0.4" d="M160.733 199C158.541 199 156.758 200.786 156.758 202.982V220.9C156.758 223.096 158.541 224.882 160.733 224.882H188.558C190.751 224.882 192.533 223.096 192.533 220.9V202.982C192.533 200.786 190.751 199 188.558 199H160.733ZM188.558 202.982V220.9H160.733V202.982H188.558Z" fill="#F8F9FA"/>
</g>
<g opacity="0.5" clip-path="url(#clip15_653_594)">
<path d="M262.687 204.973H282.656V218.909H262.687V204.973ZM261.689 200.991C260.035 200.991 258.694 202.329 258.694 203.977V219.905C258.694 221.553 260.035 222.891 261.689 222.891H270.007L269.339 224.882H264.684C263.58 224.882 262.687 225.772 262.687 226.873C262.687 227.974 263.58 228.864 264.684 228.864H280.659C281.764 228.864 282.656 227.974 282.656 226.873C282.656 225.772 281.764 224.882 280.659 224.882H275.998L275.33 222.891H283.654C285.308 222.891 286.65 221.553 286.65 219.905V203.977C286.65 202.329 285.308 200.991 283.654 200.991H261.689Z" fill="#F8F9FA"/>
<path opacity="0.4" d="M291.642 200.991C289.988 200.991 288.647 202.329 288.647 203.977V225.878C288.647 227.526 289.988 228.864 291.642 228.864H295.636C297.289 228.864 298.631 227.526 298.631 225.878V203.977C298.631 202.329 297.289 200.991 295.636 200.991H291.642ZM292.64 204.973H294.637C295.186 204.973 295.636 205.421 295.636 205.968C295.636 206.516 295.186 206.964 294.637 206.964H292.64C292.091 206.964 291.642 206.516 291.642 205.968C291.642 205.421 292.091 204.973 292.64 204.973ZM291.642 209.95C291.642 209.403 292.091 208.955 292.64 208.955H294.637C295.186 208.955 295.636 209.403 295.636 209.95C295.636 210.498 295.186 210.946 294.637 210.946H292.64C292.091 210.946 291.642 210.498 291.642 209.95ZM293.639 219.905C294.168 219.905 294.676 220.115 295.051 220.488C295.425 220.861 295.636 221.368 295.636 221.896C295.636 222.424 295.425 222.93 295.051 223.303C294.676 223.677 294.168 223.887 293.639 223.887C293.109 223.887 292.601 223.677 292.227 223.303C291.852 222.93 291.642 222.424 291.642 221.896C291.642 221.368 291.852 220.861 292.227 220.488C292.601 220.115 293.109 219.905 293.639 219.905Z" fill="#F8F9FA"/>
</g>
</g>
<defs>
<clipPath id="clip0_653_594">
<rect width="39.5" height="31.8548" fill="white"/>
</clipPath>
<clipPath id="clip1_653_594">
<rect width="39.5" height="31.8548" fill="white" transform="translate(208.968 134)"/>
</clipPath>
<clipPath id="clip2_653_594">
<rect width="36.0463" height="31.8548" fill="white" transform="translate(156.726 66)"/>
</clipPath>
<clipPath id="clip3_653_594">
<rect width="39.899" height="31.8548" fill="white" transform="translate(50.9678 66)"/>
</clipPath>
<clipPath id="clip4_653_594">
<rect width="39.899" height="31.8548" fill="white" transform="translate(303.274 134)"/>
</clipPath>
<clipPath id="clip5_653_594">
<rect width="28.2486" height="31.8548" fill="white" transform="translate(313.452)"/>
</clipPath>
<clipPath id="clip6_653_594">
<rect width="27.8169" height="31.8548" fill="white" transform="translate(268.855 66)"/>
</clipPath>
<clipPath id="clip7_653_594">
<rect width="31.8548" height="31.8548" fill="white" transform="translate(363.145 66)"/>
</clipPath>
<clipPath id="clip8_653_594">
<rect width="31.8548" height="31.8548" fill="white" transform="translate(105.758 134)"/>
</clipPath>
<clipPath id="clip9_653_594">
<rect width="35.7754" height="31.8548" fill="white" transform="translate(105.758)"/>
</clipPath>
<clipPath id="clip10_653_594">
<rect width="39.9374" height="31.8548" fill="white" transform="translate(207.694)"/>
</clipPath>
<clipPath id="clip11_653_594">
<rect width="39.9374" height="31.8548" fill="white" transform="translate(0 134)"/>
</clipPath>
<clipPath id="clip12_653_594">
<rect width="39.5" height="31.8548" fill="white" transform="translate(51 199)"/>
</clipPath>
<clipPath id="clip13_653_594">
<rect width="28.2486" height="31.8548" fill="white" transform="translate(364.452 199)"/>
</clipPath>
<clipPath id="clip14_653_594">
<rect width="35.7754" height="31.8548" fill="white" transform="translate(156.758 199)"/>
</clipPath>
<clipPath id="clip15_653_594">
<rect width="39.9374" height="31.8548" fill="white" transform="translate(258.694 199)"/>
</clipPath>
</defs>
</svg>
