<svg width="103" height="30" viewBox="0 0 103 30" fill="none" xmlns="http://www.w3.org/2000/svg">
<path d="M49.8094 24.3111C49.0606 24.3111 48.3924 24.1204 47.8047 23.739C47.221 23.3537 46.7621 22.8057 46.428 22.0952C46.098 21.3806 45.9329 20.5236 45.9329 19.524C45.9329 18.5244 46.1 17.6694 46.4341 16.9588C46.7722 16.2483 47.2351 15.7044 47.8228 15.327C48.4105 14.9497 49.0767 14.761 49.8214 14.761C50.3971 14.761 50.86 14.8573 51.2102 15.05C51.5644 15.2387 51.8381 15.4595 52.0314 15.7124C52.2286 15.9653 52.3816 16.1881 52.4903 16.3808H52.5989V11.7984H54.4043V24.1304H52.6412V22.6913H52.4903C52.3816 22.888 52.2246 23.1128 52.0193 23.3657C51.818 23.6186 51.5403 23.8394 51.186 24.0281C50.8318 24.2167 50.3729 24.3111 49.8094 24.3111ZM50.2079 22.7756C50.7271 22.7756 51.1659 22.6391 51.5242 22.3661C51.8864 22.0891 52.1602 21.7058 52.3453 21.216C52.5345 20.7263 52.6291 20.1562 52.6291 19.5059C52.6291 18.8636 52.5365 18.3016 52.3514 17.8199C52.1662 17.3382 51.8945 16.9629 51.5362 16.6939C51.178 16.4249 50.7352 16.2905 50.2079 16.2905C49.6644 16.2905 49.2116 16.431 48.8493 16.712C48.487 16.993 48.2133 17.3763 48.0281 17.8621C47.847 18.3478 47.7564 18.8958 47.7564 19.5059C47.7564 20.1241 47.849 20.6801 48.0342 21.1739C48.2193 21.6676 48.4931 22.059 48.8553 22.3481C49.2217 22.6331 49.6725 22.7756 50.2079 22.7756Z" fill="white"/>
<path d="M56.811 24.1304V14.8814H58.6164V24.1304H56.811ZM57.7228 13.4543C57.4088 13.4543 57.1391 13.35 56.9137 13.1412C56.6923 12.9285 56.5816 12.6755 56.5816 12.3825C56.5816 12.0854 56.6923 11.8325 56.9137 11.6238C57.1391 11.411 57.4088 11.3047 57.7228 11.3047C58.0368 11.3047 58.3044 11.411 58.5258 11.6238C58.7513 11.8325 58.864 12.0854 58.864 12.3825C58.864 12.6755 58.7513 12.9285 58.5258 13.1412C58.3044 13.35 58.0368 13.4543 57.7228 13.4543Z" fill="white"/>
<path d="M67.825 17.1395L66.1887 17.4285C66.1202 17.2198 66.0116 17.0211 65.8626 16.8324C65.7177 16.6437 65.5205 16.4892 65.2709 16.3687C65.0213 16.2483 64.7094 16.1881 64.335 16.1881C63.8238 16.1881 63.3971 16.3025 63.0549 16.5313C62.7128 16.7561 62.5417 17.0472 62.5417 17.4044C62.5417 17.7135 62.6564 17.9624 62.8859 18.1511C63.1153 18.3398 63.4856 18.4943 63.9969 18.6147L65.4701 18.952C66.3235 19.1487 66.9595 19.4517 67.3782 19.8612C67.7968 20.2707 68.0061 20.8026 68.0061 21.4569C68.0061 22.0109 67.8451 22.5046 67.5231 22.9382C67.2051 23.3677 66.7603 23.7049 66.1887 23.9498C65.6211 24.1947 64.963 24.3171 64.2142 24.3171C63.1757 24.3171 62.3283 24.0963 61.6722 23.6547C61.0161 23.2091 60.6135 22.5769 60.4646 21.758L62.2096 21.493C62.3183 21.9466 62.5417 22.2899 62.8798 22.5227C63.218 22.7515 63.6587 22.8659 64.2022 22.8659C64.7939 22.8659 65.2669 22.7435 65.6211 22.4986C65.9753 22.2497 66.1525 21.9466 66.1525 21.5894C66.1525 21.3003 66.0438 21.0575 65.8264 20.8608C65.6131 20.6641 65.285 20.5155 64.8422 20.4152L63.2723 20.0719C62.4068 19.8752 61.7668 19.5621 61.3522 19.1326C60.9416 18.7031 60.7363 18.1591 60.7363 17.5008C60.7363 16.9548 60.8893 16.4771 61.1952 16.0677C61.5011 15.6582 61.9238 15.3391 62.4632 15.1102C63.0026 14.8774 63.6205 14.761 64.3169 14.761C65.3192 14.761 66.1082 14.9778 66.6838 15.4113C67.2594 15.8408 67.6398 16.4169 67.825 17.1395Z" fill="white"/>
<path d="M69.8211 27.5988V14.8814H71.5842V16.3808H71.7352C71.8398 16.1881 71.9908 15.9653 72.188 15.7124C72.3853 15.4595 72.659 15.2387 73.0092 15.05C73.3594 14.8573 73.8223 14.761 74.398 14.761C75.1467 14.761 75.8149 14.9497 76.4026 15.327C76.9903 15.7044 77.4512 16.2483 77.7853 16.9588C78.1234 17.6694 78.2925 18.5244 78.2925 19.524C78.2925 20.5236 78.1255 21.3806 77.7914 22.0952C77.4573 22.8057 76.9984 23.3537 76.4147 23.739C75.831 24.1204 75.1648 24.3111 74.4161 24.3111C73.8525 24.3111 73.3916 24.2167 73.0334 24.0281C72.6791 23.8394 72.4014 23.6186 72.2001 23.3657C71.9988 23.1128 71.8439 22.888 71.7352 22.6913H71.6265V27.5988H69.8211ZM71.5903 19.5059C71.5903 20.1562 71.6849 20.7263 71.8741 21.216C72.0632 21.7058 72.337 22.0891 72.6952 22.3661C73.0535 22.6391 73.4923 22.7756 74.0115 22.7756C74.5509 22.7756 75.0018 22.6331 75.3641 22.3481C75.7263 22.059 76.0001 21.6676 76.1852 21.1739C76.3744 20.6801 76.469 20.1241 76.469 19.5059C76.469 18.8958 76.3764 18.3478 76.1913 17.8621C76.0101 17.3763 75.7364 16.993 75.3701 16.712C75.0078 16.431 74.555 16.2905 74.0115 16.2905C73.4882 16.2905 73.0454 16.4249 72.6832 16.6939C72.3249 16.9629 72.0532 17.3382 71.868 17.8199C71.6829 18.3016 71.5903 18.8636 71.5903 19.5059Z" fill="white"/>
<path d="M81.9506 11.7984V24.1304H80.1452V11.7984H81.9506Z" fill="white"/>
<path d="M86.9084 24.3352C86.3207 24.3352 85.7893 24.2268 85.3144 24.01C84.8394 23.7892 84.463 23.4701 84.1852 23.0526C83.9115 22.6351 83.7746 22.1233 83.7746 21.5171C83.7746 20.9952 83.8753 20.5657 84.0765 20.2285C84.2778 19.8913 84.5495 19.6244 84.8917 19.4276C85.2338 19.2309 85.6163 19.0824 86.0389 18.9821C86.4616 18.8817 86.8923 18.8054 87.3311 18.7532C87.8866 18.689 88.3374 18.6368 88.6836 18.5967C89.0298 18.5525 89.2814 18.4823 89.4383 18.3859C89.5953 18.2896 89.6738 18.133 89.6738 17.9163V17.8741C89.6738 17.3482 89.5249 16.9408 89.227 16.6517C88.9332 16.3627 88.4944 16.2182 87.9107 16.2182C87.3029 16.2182 86.8239 16.3527 86.4737 16.6216C86.1275 16.8866 85.888 17.1816 85.7551 17.5068L84.0584 17.1214C84.2597 16.5594 84.5536 16.1058 84.94 15.7606C85.3305 15.4113 85.7793 15.1584 86.2865 15.0019C86.7937 14.8413 87.327 14.761 87.8866 14.761C88.2569 14.761 88.6494 14.8052 89.064 14.8935C89.4826 14.9778 89.8731 15.1343 90.2354 15.3631C90.6017 15.592 90.9016 15.9191 91.135 16.3446C91.3685 16.7662 91.4853 17.3141 91.4853 17.9885V24.1304H89.7221V22.8659H89.6497C89.5329 23.0988 89.3578 23.3276 89.1244 23.5524C88.8909 23.7772 88.591 23.9638 88.2247 24.1124C87.8584 24.2609 87.4196 24.3352 86.9084 24.3352ZM87.3009 22.89C87.8 22.89 88.2267 22.7917 88.5809 22.595C88.9392 22.3983 89.2109 22.1413 89.3961 21.8242C89.5853 21.5031 89.6799 21.1598 89.6799 20.7945V19.6023C89.6155 19.6665 89.4907 19.7267 89.3055 19.7829C89.1244 19.8351 88.9171 19.8813 88.6836 19.9214C88.4501 19.9575 88.2227 19.9917 88.0013 20.0238C87.7799 20.0519 87.5947 20.076 87.4458 20.096C87.0956 20.1402 86.7756 20.2145 86.4857 20.3188C86.1999 20.4232 85.9705 20.5737 85.7974 20.7704C85.6283 20.9631 85.5438 21.22 85.5438 21.5412C85.5438 21.9868 85.7088 22.324 86.0389 22.5528C86.369 22.7776 86.7897 22.89 87.3009 22.89Z" fill="white"/>
<path d="M94.529 27.5988C94.2593 27.5988 94.0137 27.5767 93.7923 27.5326C93.5709 27.4924 93.4059 27.4483 93.2972 27.4001L93.732 25.9248C94.062 26.0132 94.3559 26.0513 94.6135 26.0392C94.8711 26.0272 95.0986 25.9309 95.2958 25.7502C95.4971 25.5696 95.6742 25.2745 95.8272 24.8651L96.0506 24.2509L92.6572 14.8814H94.5894L96.9382 22.059H97.0348L99.3836 14.8814H101.322L97.4997 25.3648C97.3226 25.8466 97.0972 26.254 96.8234 26.5872C96.5497 26.9244 96.2237 27.1773 95.8453 27.3459C95.4669 27.5145 95.0281 27.5988 94.529 27.5988Z" fill="white"/>
<path d="M40.0615 7.26205L41.6348 3.93311C39.5488 2.5563 36.6929 1.62729 33.7716 1.62729C28.8936 1.62729 25.5889 4.02874 25.5889 7.87076C25.5889 15.8432 37.7184 13.0577 37.7184 18.0519C37.7184 19.7809 36.1467 20.7736 33.5145 20.7736C31.1089 20.7736 28.2196 19.6215 25.9099 17.5069L24.2728 20.7736C26.5824 22.8867 29.9221 24.3257 33.4505 24.3257C38.3939 24.3257 41.9254 21.862 41.9254 17.8591C41.9558 9.78949 29.8263 12.4156 29.8263 7.51707C29.8263 6.01275 31.2702 5.17937 33.484 5.17937C35.1851 5.17937 37.6256 5.78808 40.0631 7.26053" fill="white"/>
<path d="M23.9502 12.9939C23.9502 8.40355 21.2723 4.59341 17.289 2.80067L15.801 5.98691C18.3328 7.2939 20.0673 9.90331 20.0673 12.9939C20.0673 17.4447 16.4735 20.9679 12.0763 20.9679C7.67911 20.9679 3.98944 17.4462 3.98944 12.9939C3.98944 9.91242 5.74527 7.30908 8.29229 5.99602L6.79817 2.79611C2.81332 4.58126 0.138489 8.38078 0.138489 12.9924C0.138489 19.3968 5.33751 24.3591 12.0443 24.3591C18.7512 24.3591 23.9502 19.3968 23.9502 12.9924" fill="white"/>
<path d="M13.7636 0.139648H10.3037V9.56785H13.7636V0.139648Z" fill="white"/>
<path d="M48.6444 5.19151L45.9041 7.9937V9.54205H52.4969V7.67341H48.8057L50.4915 5.92469C51.1518 5.24008 51.6037 4.67691 51.8487 4.23669C52.0937 3.79648 52.2169 3.33501 52.2169 2.85533C52.2169 1.9749 51.9111 1.27814 51.301 0.7681C50.6893 0.256539 49.9803 0 49.1739 0C48.3675 0 47.7026 0.17305 47.1822 0.520669C46.6603 0.868287 46.1811 1.37985 45.7444 2.05535L47.415 3.04356C47.9415 2.20715 48.4983 1.7897 49.0872 1.7897C49.4082 1.7897 49.6699 1.89444 49.8753 2.10241C50.0807 2.31189 50.1826 2.57147 50.1826 2.88265C50.1826 3.19384 50.0655 3.51717 49.8281 3.84961C49.5923 4.18356 49.1967 4.62985 48.6444 5.19151Z" fill="white"/>
</svg>
